<svg width="109" height="69" viewBox="0 0 109 69" fill="none" xmlns="http://www.w3.org/2000/svg">
<path d="M97.68 48.795H92.8651C92.8651 48.795 92.8651 37.9348 92.8651 37.5307C92.5066 37.5307 90.5602 37.5307 90.5602 37.5307C88.9211 37.5307 86.5136 37.3287 84.8745 35.7123C83.6964 34.5505 83.133 32.8331 83.133 30.5095V19.7504H87.9478V29.6508C87.9478 30.5095 87.9478 31.9239 88.8186 32.6815C89.5869 33.3887 90.8675 33.3887 91.8407 33.3382C91.8407 33.3382 92.609 33.3382 92.9164 33.3382C92.9164 32.9341 92.9164 19.6999 92.9164 19.6999H97.68V48.795ZM79.445 11.2643L63.2589 57.3316H109V11.2643H79.445ZM53.4243 48.795H48.6095C48.6095 48.795 48.6095 32.631 48.6095 31.3682C48.1997 32.4795 44.2044 43.7943 44.2044 43.7943H41.5921C41.5921 43.7943 37.5968 32.4795 37.187 31.3682C37.187 32.631 37.187 48.795 37.187 48.795H32.3722V19.7504H37.1358C37.1358 19.7504 42.8214 34.702 43.0775 35.3587C43.3336 34.702 48.7119 19.7504 48.7119 19.7504H53.4243V48.795ZM23.3571 48.795C23.3571 48.795 19.6692 36.4195 19.5667 36.1164C19.2594 36.1164 16.8008 36.1164 16.4422 36.1164C16.4422 36.5205 16.4422 48.795 16.4422 48.795H11.6273V19.7504H16.4422C16.4422 19.7504 16.4422 31.6208 16.4422 32.0249C16.8008 32.0249 18.696 32.0249 18.696 32.0249C19.2594 32.0249 19.7716 31.7723 20.1302 31.2672C20.6424 30.6105 20.8473 29.6508 21.0522 27.6303L21.3595 25.0542C21.5644 23.3873 21.8205 21.6698 23.2035 20.5586C24.5865 19.4473 26.4305 19.4473 27.4037 19.4473H28.2744V23.5388H27.5061C27.25 23.5388 26.789 23.6903 26.5329 23.9429C26.1231 24.2965 25.9182 25.1552 25.7133 26.8221L25.406 29.5498L25.3548 29.8529C25.2523 30.8631 25.1499 31.7723 24.7914 32.631C24.5352 33.1867 24.2791 33.4897 23.8694 33.7928C23.9206 34.0454 28.633 48.7445 28.633 48.7445H23.3571V48.795ZM80.4695 0L75.2961 11.2643H0V57.3316H54.0902L49.89 66.4239L56.2415 69L81.9549 0.606149L80.4695 0Z" fill="#F78F1E"/>
</svg>
