<svg width="39" height="45" viewBox="0 0 39 45" fill="none" xmlns="http://www.w3.org/2000/svg">
<path d="M0 9.16205C-9.42951e-08 11.3272 1.73833 13.0886 3.875 13.0886L35.125 13.0886C37.2617 13.0886 39 11.3272 39 9.16205V3.92659C39 1.76147 37.2617 1.11375e-06 35.125 1.02001e-06L3.875 0C1.73833 -9.37392e-08 3.32714e-07 1.76147 2.38419e-07 3.92659L0 9.16205ZM3.875 2.61773L35.125 2.61773C35.8372 2.61773 36.4167 3.20489 36.4167 3.92659V9.16205C36.4167 9.88376 35.8372 10.4709 35.125 10.4709L3.875 10.4709C3.16278 10.4709 2.58333 9.88376 2.58333 9.16205V3.92659C2.58333 3.20488 3.16278 2.61773 3.875 2.61773Z" fill="#F78F1E"/>
<path d="M24.6667 6.54432C24.6667 5.82144 24.0884 5.23546 23.375 5.23546L6.45833 5.23546C5.74495 5.23546 5.16667 5.82143 5.16667 6.54432C5.16667 7.26721 5.74495 7.85318 6.45833 7.85318L23.375 7.85319C24.0884 7.85319 24.6667 7.26721 24.6667 6.54432Z" fill="#F78F1E"/>
<path d="M4.17233e-07 25.1177C3.22937e-07 27.2829 1.73833 29.0443 3.875 29.0443L35.125 29.0443C37.2617 29.0443 39 27.2829 39 25.1177V19.8823C39 17.7171 37.2617 15.9557 35.125 15.9557H3.875C1.73833 15.9557 7.49946e-07 17.7171 6.55651e-07 19.8823L4.17233e-07 25.1177ZM3.875 18.5734H35.125C35.8372 18.5734 36.4167 19.1606 36.4167 19.8823V25.1177C36.4167 25.8394 35.8372 26.4266 35.125 26.4266L3.875 26.4266C3.16278 26.4266 2.58333 25.8394 2.58333 25.1177L2.58333 19.8823C2.58333 19.1606 3.16278 18.5734 3.875 18.5734Z" fill="#F78F1E"/>
<path d="M30.6667 22.5C30.6667 21.7771 30.0884 21.1911 29.375 21.1911H6.45834C5.74495 21.1911 5.16667 21.7771 5.16667 22.5C5.16667 23.2229 5.74495 23.8089 6.45834 23.8089H29.375C30.0884 23.8089 30.6667 23.2229 30.6667 22.5Z" fill="#F78F1E"/>
<path d="M4.17233e-07 41.0734C3.22937e-07 43.2385 1.73833 45 3.875 45L35.125 45C37.2617 45 39 43.2385 39 41.0734V35.8379C39 33.6728 37.2617 31.9114 35.125 31.9114L3.875 31.9114C1.73833 31.9114 7.49946e-07 33.6728 6.55651e-07 35.8379L4.17233e-07 41.0734ZM3.875 34.5291L35.125 34.5291C35.8372 34.5291 36.4167 35.1162 36.4167 35.8379V41.0734C36.4167 41.7951 35.8372 42.3823 35.125 42.3823L3.875 42.3823C3.16278 42.3823 2.58333 41.7951 2.58333 41.0734L2.58333 35.8379C2.58333 35.1162 3.16278 34.5291 3.875 34.5291Z" fill="#F78F1E"/>
<path d="M17.6667 38.4557C17.6667 37.7328 17.0884 37.1468 16.375 37.1468H6.45834C5.74495 37.1468 5.16667 37.7328 5.16667 38.4557C5.16667 39.1786 5.74495 39.7645 6.45834 39.7645L16.375 39.7645C17.0884 39.7645 17.6667 39.1786 17.6667 38.4557Z" fill="#F78F1E"/>
</svg>
