<svg width="12" height="12" viewBox="0 0 12 12" fill="none" xmlns="http://www.w3.org/2000/svg">
<path d="M5.8 0.300003C2.76262 0.300003 0.300003 2.76262 0.300003 5.8C0.300003 8.83774 2.76262 11.3 5.8 11.3C8.83774 11.3 11.3 8.83808 11.3 5.8C11.3 2.76262 8.8377 0.300003 5.8 0.300003ZM5.8 10.2687C3.33189 10.2687 1.33127 8.26811 1.33127 5.8C1.33127 3.33189 3.33189 1.33127 5.8 1.33127C8.26811 1.33127 10.2687 3.33189 10.2687 5.8C10.2687 8.26811 8.26811 10.2687 5.8 10.2687ZM5.80035 2.71209C5.40642 2.71209 5.10836 2.91766 5.10836 3.24972V6.29533C5.10836 6.62773 5.40639 6.83262 5.80035 6.83262C6.18466 6.83262 6.49233 6.61916 6.49233 6.29533V3.24972C6.4923 2.92555 6.18466 2.71209 5.80035 2.71209ZM5.80035 7.51876C5.42188 7.51876 5.11386 7.82677 5.11386 8.20555C5.11386 8.58367 5.42188 8.89169 5.80035 8.89169C6.17882 8.89169 6.48649 8.58367 6.48649 8.20555C6.48645 7.82674 6.17882 7.51876 5.80035 7.51876Z" fill="#F78F1E"/>
<path fill-rule="evenodd" clip-rule="evenodd" d="M6.79233 3.24971V6.29533C6.79233 6.56263 6.66174 6.78175 6.47061 6.92529C6.28455 7.06502 6.04502 7.13261 5.80035 7.13261C5.55485 7.13261 5.31407 7.06915 5.12667 6.92866C4.9322 6.78287 4.80836 6.56188 4.80836 6.29533V3.24971C4.80836 2.98329 4.93224 2.76231 5.12653 2.61646C5.31385 2.47583 5.55464 2.41208 5.80035 2.41208C6.04502 2.41208 6.28457 2.47967 6.47065 2.61949C6.66182 2.76313 6.7923 2.98237 6.79233 3.24971ZM6.78649 8.20555C6.78649 8.74925 6.3446 9.19169 5.80035 9.19169C5.25629 9.19169 4.81386 8.74945 4.81386 8.20555C4.81386 7.66117 5.25611 7.21875 5.80035 7.21875C6.3448 7.21875 6.78643 7.66137 6.78649 8.20555ZM0 5.8C0 2.59693 2.59693 0 5.8 0C9.00339 0 11.6 2.59694 11.6 5.8C11.6 9.00378 9.00341 11.6 5.8 11.6C2.59694 11.6 0 9.00343 0 5.8ZM1.63127 5.8C1.63127 8.10243 3.49757 9.96873 5.8 9.96873C8.10243 9.96873 9.96873 8.10243 9.96873 5.8C9.96873 3.49757 8.10243 1.63127 5.8 1.63127C3.49757 1.63127 1.63127 3.49757 1.63127 5.8ZM6.49233 3.24972V6.29533C6.49233 6.61916 6.18466 6.83262 5.80035 6.83262C5.40639 6.83262 5.10836 6.62773 5.10836 6.29533V3.24972C5.10836 2.91766 5.40642 2.71209 5.80035 2.71209C6.18466 2.71209 6.4923 2.92555 6.49233 3.24972ZM6.48649 8.20555C6.48649 8.58367 6.17882 8.89169 5.80035 8.89169C5.42188 8.89169 5.11386 8.58367 5.11386 8.20555C5.11386 7.82677 5.42188 7.51876 5.80035 7.51876C6.17882 7.51876 6.48645 7.82674 6.48649 8.20555ZM0.300003 5.8C0.300003 2.76262 2.76262 0.300003 5.8 0.300003C8.8377 0.300003 11.3 2.76262 11.3 5.8C11.3 8.83808 8.83774 11.3 5.8 11.3C2.76262 11.3 0.300003 8.83774 0.300003 5.8ZM1.33127 5.8C1.33127 8.26811 3.33189 10.2687 5.8 10.2687C8.26811 10.2687 10.2687 8.26811 10.2687 5.8C10.2687 3.33189 8.26811 1.33127 5.8 1.33127C3.33189 1.33127 1.33127 3.33189 1.33127 5.8Z" fill="#F78F1E"/>
</svg>
