<svg width="38" height="43" viewBox="0 0 38 43" fill="none" xmlns="http://www.w3.org/2000/svg">
<path d="M26.9881 18.4766C26.9881 17.5489 26.2466 16.7969 25.3319 16.7969H8.27219C7.35743 16.7969 6.61592 17.5489 6.61592 18.4766C6.61592 19.4043 7.35743 20.1562 8.27219 20.1562H25.3319C26.2466 20.1562 26.9881 19.4043 26.9881 18.4766Z" fill="#F78F1E"/>
<path d="M8.27219 23.5156C7.35743 23.5156 6.61592 24.2676 6.61592 25.1953C6.61592 26.123 7.35743 26.875 8.27219 26.875H18.6331C19.5479 26.875 20.2894 26.123 20.2894 25.1953C20.2894 24.2676 19.5479 23.5156 18.6331 23.5156H8.27219Z" fill="#F78F1E"/>
<path d="M12.1644 39.6406H6.62511C4.79857 39.6406 3.31255 38.1336 3.31255 36.2812V6.71875C3.31255 4.86639 4.79857 3.35938 6.62511 3.35938H26.9881C28.8147 3.35938 30.3007 4.86639 30.3007 6.71875V17.0488C30.3007 17.9765 31.0422 18.7285 31.957 18.7285C32.8717 18.7285 33.6132 17.9765 33.6132 17.0488V6.71875C33.6132 3.01403 30.6412 0 26.9881 0H6.62511C2.97202 0 0 3.01403 0 6.71875V36.2812C0 39.986 2.97202 43 6.62511 43H12.1644C13.0792 43 13.8207 42.248 13.8207 41.3203C13.8207 40.3926 13.0792 39.6406 12.1644 39.6406Z" fill="#F78F1E"/>
<path d="M36.5469 24.3195C34.6096 22.3548 31.4573 22.3547 29.5212 24.3182L20.428 33.5195C20.2349 33.7149 20.0925 33.9556 20.0131 34.2204L18.0328 40.832C17.8572 41.4182 18.0102 42.0548 18.432 42.4932C18.7481 42.8217 19.1774 43 19.6177 43C19.765 43 19.9138 42.98 20.0598 42.9389L26.7449 41.061C27.02 40.9837 27.2708 40.8356 27.4728 40.6311L36.547 31.4459C38.4843 29.4812 38.4843 26.2844 36.5469 24.3195ZM25.4409 37.9415L22.0777 38.8863L23.0619 35.6001L29.1975 29.3915L31.5403 31.7674L25.4409 37.9415ZM34.2058 29.0695L33.8849 29.3943L31.5426 27.0188L31.8624 26.6951C32.5082 26.0402 33.5589 26.0402 34.2047 26.6951C34.8505 27.35 34.8505 28.4156 34.2058 29.0695Z" fill="#F78F1E"/>
<path d="M25.3319 10.0781H8.27219C7.35743 10.0781 6.61592 10.8301 6.61592 11.7578C6.61592 12.6855 7.35743 13.4375 8.27219 13.4375H25.3319C26.2466 13.4375 26.9881 12.6855 26.9881 11.7578C26.9881 10.8301 26.2466 10.0781 25.3319 10.0781Z" fill="#F78F1E"/>
</svg>
