<svg width="12" height="12" viewBox="0 0 12 12" fill="none" xmlns="http://www.w3.org/2000/svg">
<path d="M10.1257 11.25C10.3375 11.25 10.5388 11.1676 10.689 11.0171L10.1257 11.25ZM10.1257 11.25C9.91359 11.25 9.71239 11.1676 9.56216 11.0171L10.1257 11.25ZM0.75 1.87404C0.75 1.6618 0.832681 1.46054 0.982995 1.31047L9.56195 11.0169L5.99992 7.45477L2.43791 11.017C2.43789 11.017 2.43786 11.0171 2.43784 11.0171C2.28758 11.1674 2.08651 11.25 1.87439 11.25H1.87423C1.66206 11.25 1.46099 11.1675 1.31072 11.0171C1.31069 11.0171 1.31066 11.017 1.31063 11.017L0.983077 10.6895L0.982985 10.6894C0.833034 10.5394 0.750244 10.3383 0.750244 10.126C0.750244 9.91359 0.83307 9.71265 0.982915 9.56256L0.983051 9.56242L4.54508 6L0.982969 2.4375L0.982903 2.43743C0.832973 2.28737 0.750237 2.08647 0.75 1.87432V1.87404ZM0.983182 1.31029L1.31048 0.983054L0.983182 1.31029ZM1.31064 0.982892C1.46102 0.832346 1.66213 0.75 1.87431 0.75C2.08631 0.75 2.28741 0.832395 2.43776 0.982912C2.43777 0.982927 2.43779 0.982941 2.4378 0.982956C2.43783 0.982989 2.43787 0.983021 2.4379 0.983054L5.99984 4.54515L9.5618 0.983194C9.56185 0.98314 9.56191 0.983087 9.56196 0.983034C9.71228 0.832314 9.91357 0.75 10.1256 0.75C10.3375 0.75 10.5388 0.832331 10.6891 0.983006L11.0167 1.31043L11.0168 1.3105C11.3276 1.62138 11.3278 2.12668 11.0168 2.4375C11.0168 2.43751 11.0168 2.43752 11.0168 2.43754C11.0167 2.43756 11.0167 2.43758 11.0167 2.4376L7.4546 6L11.0168 9.56233L11.0169 9.56247C11.1669 9.7127 11.2496 9.91365 11.2496 10.126C11.2496 10.3382 11.1669 10.5393 11.0169 10.6894L11.0167 10.6895L10.6893 11.0169L1.31064 0.982892Z" fill="#FF4947" stroke="#FF4947" stroke-width="0.5"/>
</svg>
