<svg width="18" height="22" viewBox="0 0 18 22" fill="none" xmlns="http://www.w3.org/2000/svg">
<path d="M13.6461 21H13.6369V1H16.6588V21H16.6506H16.6384H16.6262H16.6139H16.6016H16.5892H16.5768H16.5644H16.5519H16.5393H16.5267H16.5141H16.5014H16.4887H16.4759H16.4631H16.4502H16.4374H16.4244H16.4114H16.3984H16.3854H16.3723H16.3591H16.346H16.3327H16.3195H16.3062H16.2929H16.2795H16.2661H16.2527H16.2392H16.2257H16.2122H16.1986H16.185H16.1714H16.1577H16.144H16.1303H16.1165H16.1028H16.0889H16.0751H16.0612H16.0473H16.0334H16.0194H16.0054H15.9914H15.9774H15.9633H15.9492H15.9351H15.9209H15.9068H15.8926H15.8784H15.8641H15.8499H15.8356H15.8213H15.807H15.7926H15.7783H15.7639H15.7495H15.7351H15.7206H15.7062H15.6917H15.6772H15.6627H15.6482H15.6336H15.6191H15.6045H15.5899H15.5754H15.5607H15.5461H15.5315H15.5168H15.5022H15.4875H15.4729H15.4582H15.4435H15.4288H15.4141H15.3993H15.3846H15.3699H15.3551H15.3404H15.3256H15.3109H15.2961H15.2813H15.2665H15.2518H15.237H15.2222H15.2074H15.1926H15.1778H15.163H15.1483H15.1335H15.1187H15.1039H15.0891H15.0743H15.0595H15.0447H15.03H15.0152H15.0004H14.9857H14.9709H14.9561H14.9414H14.9267H14.9119H14.8972H14.8825H14.8678H14.8531H14.8384H14.8237H14.809H14.7943H14.7797H14.765H14.7504H14.7358H14.7212H14.7066H14.692H14.6774H14.6629H14.6483H14.6338H14.6193H14.6048H14.5904H14.5759H14.5615H14.5471H14.5327H14.5183H14.5039H14.4896H14.4753H14.461H14.4467H14.4324H14.4182H14.404H14.3898H14.3756H14.3615H14.3474H14.3333H14.3192H14.3052H14.2911H14.2772H14.2632H14.2493H14.2354H14.2215H14.2076H14.1938H14.18H14.1663H14.1525H14.1388H14.1252H14.1116H14.098H14.0844H14.0709H14.0574H14.0439H14.0305H14.0171H14.0037H13.9904H13.9771H13.9639H13.9506H13.9375H13.9243H13.9112H13.8982H13.8852H13.8722H13.8593H13.8464H13.8335H13.8207H13.808H13.7952H13.7826H13.7699H13.7573H13.7448H13.7323H13.7198H13.7074H13.6951H13.6827H13.6705H13.6582H13.6461ZM1 21V9.25H3.97726V21H1ZM7.31843 21V5.125H10.2957V21H7.31843Z" stroke="#D6D0D0" stroke-width="2"/>
</svg>
