<svg width="16" height="16" viewBox="0 0 16 16" fill="none" xmlns="http://www.w3.org/2000/svg">
<path fill-rule="evenodd" clip-rule="evenodd" d="M14.6242 9.33301C14.2877 13.0707 11.1488 15.9997 7.32655 15.9997C3.27967 15.9997 -0.000976562 12.7164 -0.000976562 8.66634C-0.000976562 4.61625 3.27967 1.33301 7.32655 1.33301V9.33301H14.6242Z" fill="#F78F1E"/>
<mask id="mask0" mask-type="alpha" maskUnits="userSpaceOnUse" x="1" y="0" width="15" height="15">
<path d="M8.65929 14.6667C4.61241 14.6667 1.33177 11.3834 1.33177 7.33333C1.33177 3.28324 4.61241 0 8.65929 0C12.7062 0 15.9868 3.28324 15.9868 7.33333C15.9868 11.3834 12.7062 14.6667 8.65929 14.6667Z" fill="#C4C4C4"/>
</mask>
<g mask="url(#mask0)">
<path d="M8.65858 -3.3335H19.9829V7.9998H8.65858V-3.3335Z" fill="#FDB567"/>
</g>
</svg>
