<svg width="20" height="13" viewBox="0 0 20 13" fill="none" xmlns="http://www.w3.org/2000/svg">
<path d="M15.2344 4.72727V4.13636C15.2344 3.80975 14.9723 3.54545 14.6484 3.54545H13.7192L12.719 2.53677C12.6091 2.42596 12.4603 2.36364 12.3047 2.36364H11.7188V1.18182H12.3047C12.6286 1.18182 12.8906 0.917524 12.8906 0.590909C12.8906 0.264294 12.6286 0 12.3047 0C11.0241 0 7.70957 0 6.44531 0C6.12145 0 5.85938 0.264294 5.85938 0.590909C5.85938 0.917524 6.12145 1.18182 6.44531 1.18182H7.03125V2.36364H6.44531C6.28969 2.36364 6.1409 2.42596 6.03105 2.53677L4.85918 3.71859C4.7493 3.82937 4.6875 3.97942 4.6875 4.13636V10.0455C4.6875 10.2024 4.7493 10.3525 4.85918 10.4632L7.20293 12.8269C7.31277 12.9377 7.46156 13 7.61719 13H13.4766C13.6986 13 13.9011 12.8736 14.0007 12.6734L15.1726 10.3097C15.2132 10.2278 15.2344 10.1372 15.2344 10.0455H16.4844V4.72727H15.2344Z" fill="#415968"/>
<path d="M2.92969 3.54545C2.60582 3.54545 2.34375 3.80975 2.34375 4.13636V6.5H1.17188V4.13636C1.17188 3.80975 0.909805 3.54545 0.585938 3.54545C0.26207 3.54545 0 3.80975 0 4.13636V10.0455C0 10.3721 0.26207 10.6364 0.585938 10.6364C0.909805 10.6364 1.17188 10.3721 1.17188 10.0455V7.68182H2.34375V10.0455C2.34375 10.3721 2.60582 10.6364 2.92969 10.6364H3.51562V3.54545H2.92969Z" fill="#415968"/>
<path d="M18.8281 3.54545H18.2422C17.9186 3.54545 17.6562 3.81002 17.6562 4.13636V11.2273C17.6562 11.5536 17.9186 11.8182 18.2422 11.8182H18.8281C19.4754 11.8182 20 11.2891 20 10.6364V4.72727C20 4.07455 19.4754 3.54545 18.8281 3.54545Z" fill="#415968"/>
</svg>
