<svg width="32" height="18" viewBox="0 0 32 18" fill="none" xmlns="http://www.w3.org/2000/svg">
<path d="M16 17.3333C19.5984 17.3333 23.4713 15.9327 27.1997 13.2826C29.9869 11.3016 31.7072 9.33898 31.7791 9.25627C32.0736 8.91784 32.0736 8.41549 31.7791 8.077C31.7072 7.99442 29.987 6.03166 27.1997 4.05067C23.4712 1.40083 19.5984 0 16 0C12.4016 0 8.52868 1.40076 4.80029 4.05067C2.01307 6.03166 0.292751 7.99435 0.220867 8.077C-0.0736237 8.41542 -0.0736237 8.91777 0.220867 9.25627C0.292751 9.33884 2.01299 11.3016 4.80029 13.2826C8.52868 15.9326 12.4015 17.3333 16 17.3333ZM29.8545 8.66674C29.1588 9.37277 27.8458 10.6143 26.1122 11.8421C23.7356 13.5253 20.052 15.532 16 15.532C11.948 15.532 8.2643 13.5253 5.88776 11.8421C4.15441 10.6145 2.84137 9.37285 2.14554 8.66674C2.84115 7.9607 4.15419 6.71918 5.88776 5.49135C8.2643 3.80808 11.948 1.80144 16 1.80144C20.052 1.80144 23.7356 3.80808 26.1122 5.49135C27.8456 6.71897 29.1586 7.96049 29.8545 8.66674Z" fill="#666666"/>
<path d="M16 14.2507C19.0936 14.2507 21.6104 11.7457 21.6104 8.66673C21.6104 5.58775 19.0936 3.08273 16 3.08273C14.6395 3.08273 13.327 3.57369 12.3046 4.46525C11.9286 4.79302 11.8908 5.36201 12.2201 5.73617C12.5495 6.11034 13.1212 6.14788 13.4971 5.82019C14.1894 5.21647 15.0784 4.88402 16.0001 4.88402C18.0957 4.88402 19.8006 6.58098 19.8006 8.66673C19.8006 10.7525 18.0957 12.4494 16.0001 12.4494C13.9043 12.4494 12.1995 10.7525 12.1995 8.66673C12.1995 8.16936 11.7943 7.76609 11.2946 7.76609C10.7949 7.76609 10.3897 8.16936 10.3897 8.66673C10.3896 11.7457 12.9064 14.2507 16 14.2507Z" fill="#666666"/>
<path d="M16 10.468C16.9979 10.468 17.8098 9.65997 17.8098 8.66673C17.8098 7.6735 16.9979 6.86544 16 6.86544C15.002 6.86544 14.1902 7.6735 14.1902 8.66673C14.1902 9.65997 15.002 10.468 16 10.468Z" fill="#666666"/>
</svg>
