<svg width="24" height="22" viewBox="0 0 24 22" fill="none" xmlns="http://www.w3.org/2000/svg">
<path d="M10.9468 20.5963L10.9469 20.5964C11.5477 21.1346 12.4524 21.1345 13.0531 20.5964L13.0532 20.5963C13.8945 19.8425 14.7106 19.1319 15.4881 18.4549C17.2621 16.9102 18.8347 15.541 20.044 14.2352C21.8195 12.3182 23 10.3519 23 7.8606C23 4.2026 20.4182 1 16.6875 1C14.6761 1 13.11 1.98117 12 3.3892C10.8899 1.98112 9.32387 1 7.3125 1C3.58226 1 1 4.20197 1 7.8606C1 10.3523 2.18201 12.3199 3.95795 14.2372C5.16765 15.5432 6.74012 16.9123 8.51318 18.4561C9.2904 19.1328 10.1062 19.8431 10.9468 20.5963Z" stroke="#D6D0D0" stroke-width="2"/>
</svg>
