<svg width="16" height="22" viewBox="0 0 16 22" fill="none" xmlns="http://www.w3.org/2000/svg">
<path d="M12.9231 15.5547H14.1538C15.1718 15.5547 16 16.4221 16 17.4883V20.0664C16 21.1326 15.1718 22 14.1538 22H12.9231C11.9051 22 11.0769 21.1326 11.0769 20.0664V19.4219H9.73285C9.47788 20.1705 8.80128 20.7109 8 20.7109C7.19872 20.7109 6.52211 20.1705 6.26715 19.4219H4.92308V20.0664C4.92308 21.1326 4.09487 22 3.07692 22H1.84615C0.828205 22 0 21.1326 0 20.0664V17.4883C0 16.4221 0.828205 15.5547 1.84615 15.5547H3.07692C4.09487 15.5547 4.92308 16.4221 4.92308 17.4883V18.1328H6.26715C6.34776 17.8961 6.46971 17.6825 6.62612 17.4984L6.38542 14.1794C5.55112 13.9937 4.92308 13.2174 4.92308 12.2891V9.71094C4.92308 8.78258 5.55112 8.00629 6.38542 7.82065L6.62612 4.50165C6.46971 4.31752 6.34776 4.10385 6.26715 3.86719H4.92308V4.51172C4.92308 5.57788 4.09487 6.44531 3.07692 6.44531H1.84615C0.828205 6.44531 0 5.57788 0 4.51172V1.93359C0 0.867432 0.828205 0 1.84615 0H3.07692C4.09487 0 4.92308 0.867432 4.92308 1.93359V2.57812H6.26715C6.52211 1.82953 7.19872 1.28906 8 1.28906C8.80128 1.28906 9.47788 1.82953 9.73285 2.57812H11.0769V1.93359C11.0769 0.867432 11.9051 0 12.9231 0H14.1538C15.1718 0 16 0.867432 16 1.93359V4.51172C16 5.57788 15.1718 6.44531 14.1538 6.44531H12.9231C11.9051 6.44531 11.0769 5.57788 11.0769 4.51172V3.86719H9.73285C9.65224 4.10385 9.53029 4.31752 9.37388 4.50165L9.61458 7.82065C10.4489 8.00629 11.0769 8.78258 11.0769 9.71094V12.2891C11.0769 13.2174 10.4489 13.9937 9.61458 14.1794L9.37388 17.4984C9.53029 17.6825 9.65224 17.8961 9.73285 18.1328H11.0769V17.4883C11.0769 16.4221 11.9051 15.5547 12.9231 15.5547ZM8.18606 16.8634L8.37692 14.2227H7.62308L7.81378 16.8634C7.87596 16.8568 7.93622 16.8438 8 16.8438C8.06378 16.8438 8.12404 16.8568 8.18606 16.8634ZM7.81394 5.13661L7.62308 7.77734H8.37692L8.18622 5.13661C8.12404 5.14316 8.06378 5.15625 8 5.15625C7.93638 5.15625 7.87596 5.14316 7.81394 5.13661Z" fill="#F78F1E"/>
</svg>
