<svg width="10" height="13" viewBox="0 0 10 13" fill="none" xmlns="http://www.w3.org/2000/svg">
<path d="M9.23073 11.4766V10.7148C9.23073 10.2941 8.88635 9.95312 8.46151 9.95312V9.19141C8.46151 8.77068 8.11715 8.42969 7.69229 8.42969H3.8461C3.42126 8.42969 3.07688 8.77071 3.07688 9.19141V9.95312H2.30766C1.88282 9.95312 1.53844 10.2941 1.53844 10.7148V11.4766H0.769221C0.34438 11.4766 0 11.8176 0 12.2383V12.6191C0 12.8295 0.172203 13 0.38461 13H9.61539C9.8278 13 10 12.8295 10 12.6191V12.2383C9.99995 11.8176 9.65557 11.4766 9.23073 11.4766Z" fill="#415968"/>
<path d="M6.92312 5.33188H4.61543V7.66784H6.92312V5.33188Z" fill="#415968"/>
<path d="M5.13855 0.0831288C4.37984 0.28435 3.77398 0.871635 3.55801 1.61627C3.30034 2.50519 3.57003 3.42464 4.26225 4.01563C4.41687 4.14794 4.52212 4.34352 4.57502 4.57019H6.95247C6.99937 4.34969 7.10247 4.16071 7.25429 4.03424C7.77713 3.59871 8.07685 2.96118 8.07685 2.285C8.07687 0.795006 6.65812 -0.31982 5.13855 0.0831288Z" fill="#415968"/>
</svg>
