<svg width="12" height="17" viewBox="0 0 12 17" fill="none" xmlns="http://www.w3.org/2000/svg">
<path d="M6 0C2.68051 0 0 2.74487 0 6.14406C0 7.32925 0.369725 8.46095 0.884126 9.39095L4.79437 16.321C5.03952 16.7737 5.53382 17 6 17C6.46622 17 6.93637 16.7737 7.20563 16.321L11.1159 9.39507C11.6343 8.46498 12 7.35386 12 6.1481C12 2.74898 9.31949 0 6 0ZM6 7.95889C4.79437 7.95889 3.80978 6.95065 3.80978 5.71608C3.80978 4.4815 4.79437 3.47327 6 3.47327C7.20563 3.47327 8.19022 4.4815 8.19022 5.71608C8.19022 6.95477 7.20563 7.95889 6 7.95889Z" fill="#F78F1E"/>
</svg>
