<svg width="40" height="40" viewBox="0 0 40 40" fill="none" xmlns="http://www.w3.org/2000/svg">
<path d="M36.4062 6.87333H27.3392C28.528 5.16825 28.3636 2.79946 26.8436 1.27946C25.1378 -0.426486 22.3623 -0.426486 20.6565 1.27946C20.465 1.47095 20.2363 1.74823 20.0001 2.21724C19.7638 1.74823 19.5352 1.47095 19.3437 1.27946C17.6379 -0.426486 14.8623 -0.426486 13.1566 1.27946C11.6366 2.79946 11.4723 5.16817 12.6609 6.87333H3.59375C1.61219 6.87333 0 8.4856 0 10.4673V13.2799C0 14.8803 1.05164 16.2392 2.5 16.703V36.4061C2.5 38.3877 4.11219 40 6.09375 40H33.9062C35.8878 40 37.5 38.3877 37.5 36.4061V16.703C38.9484 16.2391 40 14.8802 40 13.2799V10.4673C40 8.4856 38.3878 6.87333 36.4062 6.87333ZM21.25 14.3737H18.75V9.37346H21.25V14.3737ZM21.5441 5.81516C21.9302 3.59434 22.3748 3.09674 22.4242 3.04728C22.7898 2.68172 23.2699 2.49897 23.7501 2.49897C24.2302 2.49897 24.7104 2.68172 25.0759 3.04728C25.807 3.77841 25.807 4.96793 25.0759 5.69906C25.0268 5.7482 24.5322 6.19033 22.3283 6.57574C22.0075 6.63184 21.6945 6.67879 21.4056 6.71762C21.4436 6.43542 21.4894 6.12955 21.5441 5.81516ZM14.9241 3.04728C15.2897 2.68172 15.7698 2.49897 16.25 2.49897C16.7302 2.49897 17.2103 2.68172 17.5759 3.04728C17.625 3.09643 18.0671 3.59106 18.4525 5.795C18.5086 6.1158 18.5555 6.42894 18.5944 6.71778C18.3122 6.67973 18.0063 6.63395 17.692 6.57926C15.4713 6.19314 14.9737 5.74851 14.9242 5.69906C14.1931 4.968 14.1931 3.77841 14.9241 3.04728ZM2.5 10.4673C2.5 9.86411 2.99062 9.37346 3.59375 9.37346H16.25V14.3737H3.59375C2.99062 14.3737 2.5 13.8831 2.5 13.2799V10.4673ZM5 36.4061V16.8738H16.25V37.4999H6.09375C5.49062 37.4999 5 37.0092 5 36.4061ZM18.75 37.4999V16.8738H21.25V37.4999H18.75ZM35 36.4061C35 37.0092 34.5094 37.4999 33.9062 37.4999H23.75V16.8738H35V36.4061ZM37.5 13.2799C37.5 13.8831 37.0094 14.3737 36.4062 14.3737H23.75V9.37346H36.4062C37.0094 9.37346 37.5 9.86411 37.5 10.4673V13.2799Z" fill="#F78F1E"/>
</svg>
