<svg width="20" height="20" viewBox="0 0 20 20" fill="none" xmlns="http://www.w3.org/2000/svg">
<path d="M6.66769 9.99973C6.66769 8.15885 8.15961 6.66613 10.0005 6.66613C11.8414 6.66613 13.3341 8.15885 13.3341 9.99973C13.3341 11.8406 11.8414 13.3333 10.0005 13.3333C8.15961 13.3333 6.66769 11.8406 6.66769 9.99973ZM4.86561 9.99973C4.86561 12.8357 7.16449 15.1346 10.0005 15.1346C12.8365 15.1346 15.1354 12.8357 15.1354 9.99973C15.1354 7.16373 12.8365 4.86485 10.0005 4.86485C7.16449 4.86485 4.86561 7.16373 4.86561 9.99973ZM14.1386 4.66125C14.1386 4.89858 14.2088 5.13062 14.3406 5.32801C14.4724 5.5254 14.6597 5.67928 14.879 5.7702C15.0982 5.86111 15.3395 5.88497 15.5723 5.83876C15.8051 5.79255 16.0189 5.67835 16.1868 5.51059C16.3547 5.34284 16.4691 5.12906 16.5155 4.89631C16.5619 4.66355 16.5382 4.42226 16.4475 4.20295C16.3567 3.98364 16.203 3.79617 16.0057 3.66423C15.8084 3.53229 15.5765 3.46182 15.3391 3.46173C15.021 3.46187 14.7155 3.58828 14.4905 3.81319C14.2655 4.0381 14.1389 4.34311 14.1386 4.66125ZM5.96049 18.1395C4.98553 18.0951 4.45561 17.9327 4.10345 17.7955C3.63657 17.6137 3.30345 17.3972 2.95321 17.0475C2.60297 16.6977 2.38617 16.3649 2.20521 15.898C2.06793 15.546 1.90553 15.016 1.86121 14.041C1.81273 12.9869 1.80305 12.6703 1.80305 9.99981C1.80305 7.32933 1.81353 7.01357 1.86121 5.95861C1.90561 4.98365 2.06921 4.45461 2.20521 4.10157C2.38697 3.63469 2.60345 3.30157 2.95321 2.95133C3.30297 2.60109 3.63577 2.38429 4.10345 2.20333C4.45545 2.06605 4.98553 1.90365 5.96049 1.85933C7.01457 1.81085 7.33121 1.80117 10.0005 1.80117C12.6698 1.80117 12.9867 1.81165 14.0417 1.85933C15.0166 1.90373 15.5457 2.06733 15.8987 2.20333C16.3656 2.38429 16.6987 2.60157 17.049 2.95133C17.3992 3.30109 17.6152 3.63469 17.797 4.10157C17.9342 4.45357 18.0966 4.98365 18.141 5.95861C18.1894 7.01357 18.1991 7.32933 18.1991 9.99981C18.1991 12.6703 18.1894 12.986 18.141 14.041C18.0966 15.016 17.9334 15.5459 17.797 15.898C17.6152 16.3649 17.3987 16.698 17.049 17.0475C16.6992 17.3969 16.3656 17.6137 15.8987 17.7955C15.5467 17.9328 15.0166 18.0952 14.0417 18.1395C12.9876 18.188 12.671 18.1976 10.0005 18.1976C7.33001 18.1976 7.01425 18.188 5.96049 18.1395ZM5.87769 0.0602854C4.81313 0.108765 4.08569 0.277565 3.45041 0.524765C2.79249 0.780045 2.23553 1.12253 1.67897 1.67821C1.12241 2.23389 0.780808 2.79173 0.525528 3.44965C0.278328 4.08533 0.109528 4.81237 0.0610483 5.87693C0.0117683 6.94317 0.000488281 7.28405 0.000488281 9.99973C0.000488281 12.7154 0.0117683 13.0563 0.0610483 14.1225C0.109528 15.1872 0.278328 15.9141 0.525528 16.5498C0.780808 17.2073 1.12249 17.7658 1.67897 18.3212C2.23545 18.8767 2.79249 19.2187 3.45041 19.4747C4.08689 19.7219 4.81313 19.8907 5.87769 19.9392C6.94449 19.9876 7.28481 19.9997 10.0005 19.9997C12.7162 19.9997 13.057 19.9884 14.1233 19.9392C15.1879 19.8907 15.9149 19.7219 16.5506 19.4747C17.2081 19.2187 17.7654 18.8769 18.322 18.3212C18.8786 17.7656 19.2194 17.2073 19.4754 16.5498C19.7226 15.9141 19.8922 15.1871 19.9399 14.1225C19.9884 13.0555 19.9997 12.7154 19.9997 9.99973C19.9997 7.28405 19.9884 6.94317 19.9399 5.87693C19.8914 4.81229 19.7226 4.08493 19.4754 3.44965C19.2194 2.79213 18.8777 2.23477 18.322 1.67821C17.7663 1.12165 17.2081 0.780045 16.5514 0.524765C15.9149 0.277565 15.1878 0.107965 14.1241 0.0602854C13.0578 0.0118053 12.717 -0.000274658 10.0013 -0.000274658C7.28561 -0.000274658 6.94449 0.0110053 5.87769 0.0602854Z" fill="#A5BBC9"/>
</svg>
