<svg width="54" height="62" viewBox="0 0 54 62" fill="none" xmlns="http://www.w3.org/2000/svg">
<path d="M19.0207 0H8.62434C3.48468 0 -0.517709 4.53183 0.0545641 9.70097C1.50357 22.7752 0.770753 29.2702 7.35614 30.0938V54.4533C7.35614 55.346 7.41693 55.1976 12.3981 61.3195C13.1384 62.2292 14.5104 62.2245 15.247 61.3195C20.2404 55.1809 20.2877 55.3457 20.2877 54.4533V45.899C20.2877 44.9294 19.8574 44.693 17.5755 42.2723C19.8807 39.827 20.2877 39.6041 20.2877 38.6457V30.0938C26.8294 29.276 26.1223 22.9378 27.5893 9.70097C28.163 4.51991 24.1494 0 19.0207 0ZM23.9226 9.28387L22.3088 23.8466C22.1477 25.3024 20.9341 26.41 19.4759 26.41L7.35614 26.2905C6.28234 25.9693 5.46555 25.0243 5.3351 23.8466L3.72264 9.28387C3.39403 6.3223 5.67342 3.73497 8.62434 3.73497H19.0207C21.9645 3.73497 24.2515 6.31776 23.9226 9.28387ZM16.5976 37.8987L13.6897 40.9837C13.0095 41.7059 13.0095 42.84 13.6897 43.5621L16.5976 46.646V53.7836L13.8226 57.1948L11.0464 53.7836V30.1449H16.5977V37.8987H16.5976Z" fill="#F78F1E"/>
<path d="M13.8226 7.53344C10.0365 7.53344 6.95642 10.6509 6.95642 14.483C6.95642 18.3222 10.0456 21.4325 13.8226 21.4325C17.6004 21.4325 20.6888 18.3214 20.6888 14.483C20.6888 10.6509 17.6086 7.53344 13.8226 7.53344ZM13.8226 11.2684C15.5742 11.2684 16.9986 12.7101 16.9986 14.483C16.9986 16.2558 15.5742 17.6976 13.8226 17.6976C12.071 17.6976 10.6466 16.2559 10.6466 14.483C10.6466 12.7101 12.071 11.2684 13.8226 11.2684Z" fill="#F78F1E"/>
<path d="M47.4326 18.2989H44.2271C45.4 16.1922 47.6811 11.9668 47.6811 9.63256C47.6811 0.687059 34.3055 0.687059 34.3055 9.63256C34.3055 11.9654 36.5804 16.1767 37.7619 18.2989H34.554C30.9328 18.2989 27.9867 21.2807 27.9867 24.9459V54.4248C27.9867 58.09 30.9327 61.0718 34.554 61.0718H47.4327C51.0539 61.0718 54 58.09 54 54.4248V24.9459C53.9999 21.2806 51.0538 18.2989 47.4326 18.2989ZM43.9909 9.63256C43.9909 10.6522 42.6169 13.5966 40.9933 16.5099C39.3697 13.5966 37.9957 10.6522 37.9957 9.63256C37.9957 5.62407 43.9909 5.62137 43.9909 9.63256ZM50.3097 54.4247C50.3097 56.0307 49.0194 57.3368 47.4326 57.3368H34.5539C32.9684 57.3368 31.6768 56.0307 31.6768 54.4247V24.9459C31.6768 23.3398 32.9683 22.0339 34.5539 22.0339H47.4326C49.0193 22.0339 50.3097 23.3398 50.3097 24.9459V54.4247Z" fill="#F78F1E"/>
<path d="M46.3624 26.7597H35.6253C34.6056 26.7597 33.7802 27.5952 33.7802 28.6272V36.635C33.7802 37.6658 34.6056 38.5025 35.6253 38.5025H46.3624C47.3809 38.5025 48.2075 37.6658 48.2075 36.635V28.6272C48.2075 27.5952 47.3809 26.7597 46.3624 26.7597ZM44.5173 34.7675H37.4703V30.4947H44.5173V34.7675Z" fill="#F78F1E"/>
<path d="M46.3624 40.868H35.6253C34.6056 40.868 33.7802 41.7047 33.7802 42.7355V50.7433C33.7802 51.7753 34.6056 52.6108 35.6253 52.6108H46.3624C47.3809 52.6108 48.2075 51.7753 48.2075 50.7433V42.7355C48.2075 41.7047 47.3809 40.868 46.3624 40.868ZM44.5173 48.8758H37.4703V44.603H44.5173V48.8758Z" fill="#F78F1E"/>
</svg>
