<svg width="18" height="23" viewBox="0 0 18 23" fill="none" xmlns="http://www.w3.org/2000/svg">
<path d="M16.6153 20.3047V18.957C16.6153 18.2127 15.9954 17.6094 15.2307 17.6094V16.2617C15.2307 15.5174 14.6109 14.9141 13.8461 14.9141H6.92299C6.15828 14.9141 5.53839 15.5174 5.53839 16.2617V17.6094H4.15379C3.38908 17.6094 2.7692 18.2127 2.7692 18.957V20.3047H1.3846C0.619884 20.3047 0 20.908 0 21.6523V22.3262C0 22.6983 0.309965 23 0.692299 23H17.3077C17.69 23 18 22.6983 18 22.3262V21.6523C17.9999 20.908 17.38 20.3047 16.6153 20.3047Z" fill="#F78F1E"/>
<path d="M12.4616 9.43332H8.30777V13.5662H12.4616V9.43332Z" fill="#F78F1E"/>
<path d="M9.24939 0.147074C7.88371 0.50308 6.79316 1.54212 6.40441 2.85955C5.94062 4.43226 6.42606 6.05897 7.67206 7.10457C7.95036 7.33866 8.13982 7.6847 8.23503 8.08571H12.5145C12.5989 7.69561 12.7845 7.36126 13.0577 7.1375C13.9988 6.36696 14.5383 5.23901 14.5383 4.0427C14.5384 1.40655 11.9846 -0.565836 9.24939 0.147074Z" fill="#F78F1E"/>
</svg>
