<svg width="64" height="62" viewBox="0 0 64 62" fill="none" xmlns="http://www.w3.org/2000/svg">
<path d="M54.9765 20.2118H41.8004V11.1411C41.8004 6.78922 40.5077 3.6302 37.9482 1.75576C33.9261 -1.20664 28.4546 0.458073 28.2195 0.53672C27.2924 0.825096 26.6525 1.70333 26.6525 2.68643V13.6316C26.6525 21.7323 17.1589 24.5505 16.7541 24.6554C16.728 24.6685 16.7019 24.6685 16.6888 24.6816L15.605 25.0224C14.3775 23.8558 12.7321 23.148 10.93 23.148H6.81657C3.0557 23.1349 0 26.2021 0 29.9772V53.5191C0 57.2942 3.0557 60.3615 6.81657 60.3615H10.93C12.6668 60.3615 14.2599 59.7061 15.4613 58.6181C17.1851 60.6761 19.7707 62 22.6566 62H49.3483C55.5381 62 59.6515 58.5919 60.3697 52.89L63.6866 31.9827L63.8694 30.8555C63.9478 30.3311 64 29.7937 64 29.2563C63.9869 24.2753 59.9388 20.2118 54.9765 20.2118ZM13.2675 53.5322C13.2675 54.8299 12.2228 55.8786 10.93 55.8786H6.81657C5.52377 55.8786 4.47909 54.8299 4.47909 53.5322V29.9772C4.47909 28.6795 5.52377 27.6309 6.81657 27.6309H10.93C12.2228 27.6309 13.2675 28.6795 13.2675 29.9772V53.5322ZM59.4426 30.1607L55.9429 52.2346C55.9429 52.2608 55.9298 52.287 55.9298 52.3132C55.7731 53.5978 55.303 57.5171 49.3483 57.5171H22.6566C19.9535 57.5171 17.7466 55.3018 17.7466 52.5885V29.9772C17.7466 29.6757 17.7205 29.3743 17.6813 29.0728L18.0078 28.9679C18.961 28.6926 31.1316 24.9438 31.1316 13.6185V4.53465C32.4244 4.40357 34.122 4.49533 35.3103 5.38667C36.6423 6.38288 37.3214 8.30975 37.3214 11.1411V22.4664C37.3214 23.7116 38.3269 24.7209 39.5674 24.7209H54.9765C57.4838 24.7209 59.5079 26.7658 59.5079 29.2694C59.5079 29.5578 59.4817 29.8593 59.4426 30.1607Z" fill="#F78F1E"/>
</svg>
