<svg width="18" height="15" viewBox="0 0 18 15" fill="none" xmlns="http://www.w3.org/2000/svg">
<path d="M9.00921 0.235352C10.9313 0.341435 12.7338 1.0596 14.1726 2.29249L11.9475 4.43194C11.1101 3.76165 10.0934 3.35659 9.00921 3.26134V0.235352Z" fill="#415968"/>
<path d="M12.6529 5.10974L14.8779 2.97032C16.1613 4.35331 16.9091 6.08657 17.0201 7.93516H13.8729C13.7732 6.89251 13.351 5.91481 12.6529 5.10974Z" fill="#415968"/>
<path d="M3.14827 7.93516H0.00102806C0.112057 6.08657 0.859867 4.35331 2.14324 2.97032L4.36828 5.10974C3.67017 5.91478 3.248 6.89251 3.14827 7.93516Z" fill="#415968"/>
<path d="M3.14897 8.89404C3.21888 9.63247 3.43804 10.2484 3.69726 10.7424C3.44439 11.1174 3.23357 11.4343 3.09429 11.6447C2.715 12.2179 2.79897 12.9536 3.29852 13.4339C3.41982 13.5506 3.55838 13.6445 3.70853 13.714L3.19032 14.2123C3.09279 14.3061 2.96494 14.353 2.83713 14.353C2.70928 14.353 2.58146 14.3061 2.48397 14.2123C0.990608 12.7766 0.119837 10.9031 0.000663757 8.89404H3.14897Z" fill="#415968"/>
<path d="M13.8722 8.89404H17.0205C16.9013 10.9031 16.0306 12.7766 14.5372 14.2123C14.4397 14.3061 14.3119 14.353 14.1841 14.353C14.0563 14.353 13.9284 14.3061 13.8309 14.2123L12.318 12.7575C12.1229 12.57 12.1229 12.2659 12.318 12.0783C12.7128 11.6987 13.7073 10.6359 13.8722 8.89404Z" fill="#415968"/>
<path d="M2.8486 2.29249C4.28734 1.05957 6.08985 0.341435 8.01196 0.235352V3.26134C6.92781 3.35659 5.91104 3.76165 5.07367 4.43194L2.8486 2.29249Z" fill="#415968"/>
<path d="M7.40263 7.35734C8.01352 6.76997 9.00752 6.76997 9.6184 7.35734C10.2293 7.94472 10.2293 8.90046 9.6184 9.48784C8.84666 10.2299 5.05393 12.5584 4.62398 12.8214C4.42682 12.9421 4.16896 12.9148 4.00368 12.7559C3.83844 12.5971 3.81012 12.3491 3.93561 12.1595C4.20922 11.7462 6.63089 8.09935 7.40263 7.35734Z" fill="#415968"/>
</svg>
