<svg width="25" height="24" viewBox="0 0 25 24" fill="none" xmlns="http://www.w3.org/2000/svg">
<rect x="0.147949" width="24.1114" height="24" rx="4" fill="#A5BBC9"/>
<path d="M12.7026 4.23535C14.6247 4.34144 16.4272 5.0596 17.8659 6.29249L15.6409 8.43194C14.8035 7.76165 13.7868 7.35659 12.7026 7.26134V4.23535Z" fill="white"/>
<path d="M16.3462 9.10974L18.5713 6.97032C19.8546 8.35331 20.6025 10.0866 20.7135 11.9352H17.5663C17.4665 10.8925 17.0444 9.91481 16.3462 9.10974Z" fill="white"/>
<path d="M6.84163 11.9352H3.69439C3.80542 10.0866 4.55323 8.35331 5.8366 6.97032L8.06164 9.10974C7.36353 9.91478 6.94136 10.8925 6.84163 11.9352Z" fill="white"/>
<path d="M6.84233 12.894C6.91224 13.6325 7.1314 14.2484 7.39062 14.7424C7.13775 15.1174 6.92693 15.4343 6.78765 15.6447C6.40836 16.2179 6.49232 16.9536 6.99188 17.4339C7.11318 17.5506 7.25174 17.6445 7.40189 17.714L6.88368 18.2123C6.78615 18.3061 6.6583 18.353 6.53049 18.353C6.40264 18.353 6.27482 18.3061 6.17733 18.2123C4.68397 16.7766 3.8132 14.9031 3.69402 12.894H6.84233Z" fill="white"/>
<path d="M17.5655 12.894H20.7139C20.5947 14.9031 19.7239 16.7766 18.2306 18.2123C18.1331 18.3061 18.0053 18.353 17.8774 18.353C17.7496 18.353 17.6218 18.3061 17.5242 18.2123L16.0113 16.7575C15.8163 16.57 15.8163 16.2659 16.0113 16.0783C16.4062 15.6987 17.4006 14.6359 17.5655 12.894Z" fill="white"/>
<path d="M6.54195 6.29249C7.9807 5.05957 9.78321 4.34144 11.7053 4.23535V7.26134C10.6212 7.35659 9.6044 7.76165 8.76703 8.43194L6.54195 6.29249Z" fill="white"/>
<path d="M11.096 11.3573C11.7069 10.77 12.7009 10.77 13.3118 11.3573C13.9227 11.9447 13.9227 12.9005 13.3118 13.4878C12.54 14.2299 8.74729 16.5584 8.31734 16.8214C8.12018 16.9421 7.86232 16.9148 7.69704 16.7559C7.5318 16.5971 7.50348 16.3491 7.62896 16.1595C7.90258 15.7462 10.3243 12.0994 11.096 11.3573Z" fill="white"/>
</svg>
