<svg width="22" height="23" viewBox="0 0 22 23" fill="none" xmlns="http://www.w3.org/2000/svg">
<path d="M11 12.955C3.90658 12.955 0 16.2242 0 22.1606C0 22.6242 0.385711 23 0.861613 23H21.1384C21.6143 23 22 22.6242 22 22.1606C22 16.2245 18.0935 12.955 11 12.955ZM1.75458 21.3212C2.09349 16.8826 5.1996 14.6338 11 14.6338C16.8004 14.6338 19.9066 16.8826 20.2458 21.3212H1.75458Z" fill="#666666"/>
<path d="M11 0C7.74165 0 5.28463 2.44186 5.28463 5.67979C5.28463 9.01254 7.84854 11.7236 11 11.7236C14.1515 11.7236 16.7154 9.01254 16.7154 5.68006C16.7154 2.44186 14.2584 0 11 0ZM11 10.045C8.79859 10.045 7.00786 8.08693 7.00786 5.68006C7.00786 3.36159 8.68686 1.67882 11 1.67882C13.2762 1.67882 14.9922 3.39879 14.9922 5.68006C14.9922 8.08693 13.2015 10.045 11 10.045Z" fill="#666666"/>
</svg>
