<svg width="25" height="24" viewBox="0 0 25 24" fill="none" xmlns="http://www.w3.org/2000/svg">
<rect y="3.05176e-05" width="24.1114" height="24" rx="4" fill="#A5BBC9"/>
<path d="M12.488 5.64713C10.8457 5.64713 9.50954 6.98303 9.50954 8.62506C9.50954 10.2671 10.8457 11.603 12.488 11.603C14.1303 11.603 15.4665 10.2671 15.4665 8.62506C15.4665 6.98303 14.1303 5.64713 12.488 5.64713Z" fill="white"/>
<path d="M16.1938 13.5485C15.3784 12.7207 14.2974 12.2648 13.1499 12.2648H11.8261C10.6787 12.2648 9.59765 12.7207 8.78222 13.5485C7.97077 14.3722 7.52389 15.4596 7.52389 16.6103C7.52389 16.7931 7.67206 16.9412 7.85483 16.9412H17.1212C17.304 16.9412 17.4521 16.7931 17.4521 16.6103C17.4521 15.4596 17.0052 14.3722 16.1938 13.5485Z" fill="white"/>
</svg>
