<svg width="62" height="62" viewBox="0 0 62 62" fill="none" xmlns="http://www.w3.org/2000/svg">
<path d="M30.2144 62H14.5029C6.50601 62 0 55.4813 0 47.4688V14.5312C0 6.51872 6.50601 0 14.5029 0H47.3762C55.3731 0 61.8791 6.51872 61.8791 14.5312V20.2227C61.7515 23.436 57.1714 23.4336 57.0448 20.2227V14.5312C57.0448 9.18956 52.7075 4.84375 47.3762 4.84375H14.5029C9.17165 4.84375 4.83431 9.18956 4.83431 14.5312V47.4688C4.83431 52.8104 9.17165 57.1562 14.5029 57.1562H30.2144C33.4215 57.2841 33.4191 61.8732 30.2144 62ZM39.5205 13.3203C39.5205 11.9827 38.4383 10.8984 37.1033 10.8984H24.7758C21.5687 11.0263 21.5712 15.6154 24.7758 15.7422H37.1033C38.4383 15.7422 39.5205 14.6579 39.5205 13.3203ZM62 34.0273C61.6123 22.7915 38.2115 22.7983 37.8285 34.0275C37.8285 38.7805 43.1371 42.5039 49.9142 42.5039C56.6913 42.5039 62 38.7805 62 34.0273ZM55.4698 31.7997C57.7126 33.2094 57.7123 34.8453 55.4698 36.2549C52.6459 38.1092 47.1825 38.1091 44.3585 36.2549C42.1158 34.8452 42.116 33.2092 44.3585 31.7997C45.7846 30.9066 47.8096 30.3945 49.9141 30.3945C52.0186 30.3945 54.0437 30.9066 55.4698 31.7997ZM49.7934 62C45.6359 62 41.6986 60.8043 38.707 58.6334C37.6258 57.8488 37.3842 56.3345 38.1672 55.2512C38.9503 54.168 40.4616 53.9258 41.5427 54.7103C46.0151 57.956 53.5718 57.956 58.0442 54.7103C59.1253 53.9257 60.6366 54.1679 61.4196 55.2512C62.2027 56.3344 61.961 57.8487 60.8799 58.6334C57.8882 60.8043 53.9509 62 49.7934 62ZM60.8798 48.8248C61.961 48.0402 62.2026 46.5259 61.4195 45.4426C60.6365 44.3593 59.1252 44.1171 58.0441 44.9017C53.5716 48.1474 46.015 48.1474 41.5425 44.9017C40.4615 44.1171 38.95 44.3593 38.1671 45.4426C37.3841 46.5258 37.6258 48.0401 38.7069 48.8248C41.6986 50.9957 45.6359 52.1914 49.7934 52.1914C53.9509 52.1914 57.8882 50.9957 60.8798 48.8248Z" fill="#F78F1E"/>
</svg>
