<svg width="8" height="13" viewBox="0 0 8 13" fill="none" xmlns="http://www.w3.org/2000/svg">
<path d="M6.67232 5.23097C5.53123 3.58155 4.44811 2.46765 4.35144 0.282693C4.35144 0.21843 4.3321 0.175588 4.29341 0.132745C4.27407 0.0256398 4.17737 -0.0386236 4.08066 0.0256398C3.96462 0.0256398 3.86795 0.111324 3.86795 0.261272C1.43099 3.17454 -2.68863 10.5648 2.49474 12.6855C4.83499 13.6495 7.4847 12.3428 7.94888 9.51516C8.20028 7.9943 7.48464 6.38775 6.67232 5.23097ZM2.51405 11.3146C1.95316 10.9504 1.60503 10.2221 1.43096 9.57946C1.35359 9.25814 1.31491 8.93686 1.33425 8.61554C1.4503 8.0586 1.60503 7.52303 1.77909 6.98754C1.8758 7.45877 2.06921 7.93007 2.33998 8.27277C2.95889 9.02258 4.21605 9.47239 4.56419 10.4149C4.77694 10.9933 3.94528 11.486 3.59714 11.6145C3.22966 11.743 2.82347 11.5288 2.51405 11.3146Z" fill="#415968"/>
</svg>
