<svg width="24" height="24" viewBox="0 0 24 24" fill="none" xmlns="http://www.w3.org/2000/svg">
<path d="M2.37483 10.8437C3.68433 10.8437 4.74966 11.9092 4.74966 13.2188C4.74966 14.2836 4.04522 15.187 3.07791 15.4875V21.0424C3.07791 21.8979 3.77381 22.5938 4.62914 22.5938C5.48447 22.5938 6.18038 21.8979 6.18038 21.0424V18.7065C6.18038 17.0756 7.50708 15.7489 9.13781 15.7489C10.7685 15.7489 12.0952 17.0756 12.0952 18.7065V21.0424C12.0952 21.8979 12.7911 22.5938 13.6464 22.5938C14.5018 22.5938 15.1977 21.8979 15.1977 21.0424V16.0982C12.9111 15.83 10.9591 14.2684 10.2168 12.0436L7.95516 5.26358C7.65361 4.35959 7.80019 3.39766 8.35725 2.6245C8.91436 1.85135 9.78033 1.40798 10.7333 1.40798H12.4195V0H13.8257V4.22215H12.4195V2.81422H10.7333C10.238 2.81422 9.78769 3.04472 9.49814 3.44665C9.2085 3.84853 9.13228 4.34862 9.28908 4.81853L11.5508 11.5985C12.1762 13.4735 13.9243 14.7332 15.9007 14.7332C17.8771 14.7332 19.6253 13.4735 20.2507 11.5985L22.5124 4.81857C22.6692 4.34862 22.593 3.84858 22.3034 3.44665C22.0138 3.04472 21.5636 2.81422 21.0682 2.81422H19.3818V4.22215H17.9757V0H19.3818V1.40793H21.0682C22.0211 1.40793 22.8872 1.85135 23.4443 2.6245C24.0013 3.39766 24.1479 4.35955 23.8464 5.26358L21.5847 12.0436C20.8425 14.2684 18.8904 15.8301 16.6038 16.0982V21.0424C16.6038 22.6733 15.2772 24 13.6464 24C12.0157 24 10.689 22.6733 10.689 21.0424V18.7065C10.689 17.851 9.99314 17.1551 9.13781 17.1551C8.28244 17.1551 7.58653 17.851 7.58653 18.7065V21.0424C7.58653 22.6733 6.25988 24 4.62914 24C2.99841 24 1.67175 22.6733 1.67175 21.0424V15.4875C0.704485 15.187 0 14.2837 0 13.2188C-4.76837e-05 11.9091 1.06533 10.8437 2.37483 10.8437Z" fill="#F78F1E"/>
</svg>
