<svg width="28" height="32" viewBox="0 0 28 32" fill="none" xmlns="http://www.w3.org/2000/svg">
<path d="M27.9845 7.47859C27.9672 7.14146 27.7715 6.83978 27.4724 6.68884L14.4153 0.0989533C14.1539 -0.0329844 13.8461 -0.0329844 13.5847 0.0989533L0.527605 6.68884C0.228477 6.83978 0.0328151 7.14146 0.0154779 7.47859C0.00557095 7.67046 -0.209162 12.2391 1.33267 17.5433C2.24497 20.6817 3.58687 23.4227 5.32108 25.6904C7.50649 28.5481 10.3154 30.6503 13.6697 31.9388C13.7761 31.9796 13.888 32 14 32C14.112 32 14.2239 31.9796 14.3303 31.9388C17.6846 30.6503 20.4935 28.5481 22.6789 25.6904C24.4131 23.4227 25.755 20.6816 26.6673 17.5433C28.2092 12.2391 27.9944 7.67046 27.9845 7.47859ZM24.8698 17.0673C22.9789 23.5262 19.3229 27.8942 14 30.0558C8.67712 27.8942 5.02102 23.5262 3.13022 17.0673C1.96195 13.0764 1.85445 9.44341 1.8599 8.11278L14 1.98564L26.14 8.11265C26.1455 9.44397 26.0379 13.0767 24.8698 17.0673Z" fill="#F78F1E"/>
<path d="M23.7167 8.98597L14.4153 4.29165C14.1538 4.15971 13.8461 4.15977 13.5846 4.29165L4.28333 8.98597C3.94996 9.15415 3.74848 9.50728 3.7717 9.88278C3.87262 11.5179 4.16005 14.0258 4.95638 16.6872C6.54843 22.0084 9.45265 25.753 13.5883 27.817C13.718 27.8817 13.859 27.9141 13.9999 27.9141C14.1409 27.9141 14.2819 27.8817 14.4116 27.817C18.5472 25.753 21.4514 22.0084 23.0435 16.6872C23.8397 14.026 24.1273 11.5181 24.2282 9.88284C24.2515 9.50734 24.05 9.15415 23.7167 8.98597ZM21.2654 16.1451C19.8824 20.7674 17.4393 24.0541 14 25.9218C10.5607 24.0541 8.11756 20.7674 6.73462 16.1451C6.08336 13.9685 5.79562 11.8956 5.6703 10.3823L14 6.17828L22.3298 10.3823C22.2043 11.8957 21.9165 13.9687 21.2654 16.1451Z" fill="#F78F1E"/>
</svg>
