<svg width="17" height="15" viewBox="0 0 17 15" fill="none" xmlns="http://www.w3.org/2000/svg">
<path d="M16.3416 6.79775C16.6553 6.49741 16.7661 6.05662 16.6308 5.64687C16.4951 5.23711 16.1419 4.94461 15.7078 4.88254L11.8489 4.33171C11.6846 4.3082 11.5426 4.20693 11.4692 4.06053L9.74395 0.625758C9.55024 0.239832 9.15707 0 8.71891 0C8.28106 0 7.8879 0.239832 7.69419 0.625758L5.96865 4.06084C5.89525 4.20725 5.75292 4.30851 5.58857 4.33202L1.72966 4.88285C1.29596 4.94461 0.942369 5.23743 0.806739 5.64718C0.671428 6.05693 0.782166 6.49772 1.09587 6.79806L3.88793 9.47164C4.00697 9.58575 4.06154 9.75003 4.03345 9.91055L3.37477 13.6858C3.31637 14.0181 3.40509 14.3413 3.62401 14.5962C3.9642 14.9934 4.5581 15.1144 5.03297 14.8693L8.48403 13.0867C8.62828 13.0124 8.80986 13.013 8.95379 13.0867L12.4052 14.8693C12.573 14.9561 12.7521 15 12.9368 15C13.2742 15 13.5939 14.8527 13.8138 14.5962C14.033 14.3413 14.1214 14.0175 14.063 13.6858L13.404 9.91055C13.376 9.74972 13.4305 9.58575 13.5496 9.47164L16.3416 6.79775Z" fill="#C4C4C4"/>
</svg>
