<svg width="60" height="60" viewBox="0 0 60 60" fill="none" xmlns="http://www.w3.org/2000/svg">
<path d="M53.6865 15.7874C52.4438 16.3885 51.9238 17.8839 52.525 19.126C54.1675 22.5189 55 26.1761 55 30C55 43.7848 43.7848 55 30 55C16.2152 55 5 43.7848 5 30C5 16.2152 16.2152 5 30 5C35.7123 5 41.0785 6.86523 45.52 10.3937C46.5973 11.2537 48.1726 11.0736 49.0326 9.99268C49.8926 8.91235 49.7125 7.33887 48.631 6.4801C43.3728 2.30103 36.756 0 30 0C13.4589 0 0 13.4589 0 30C0 46.5411 13.4589 60 30 60C46.5411 60 60 46.5411 60 30C60 25.4163 58.999 21.0236 57.0251 16.9489C56.4252 15.7037 54.9249 15.1849 53.6865 15.7874Z" fill="#F78F1E"/>
<path d="M30 10C28.62 10 27.5 11.12 27.5 12.5V30C27.5 31.38 28.62 32.5 30 32.5H42.5C43.88 32.5 45 31.38 45 30C45 28.62 43.88 27.5 42.5 27.5H32.5V12.5C32.5 11.12 31.38 10 30 10Z" fill="#F78F1E"/>
</svg>
