<svg width="45" height="45" viewBox="0 0 45 45" fill="none" xmlns="http://www.w3.org/2000/svg">
<path d="M22.5 0C10.0935 0 0 10.0935 0 22.5C0 34.9065 10.0935 45 22.5 45C34.9065 45 45 34.9065 45 22.5C45 10.0935 34.9065 0 22.5 0ZM22.5 42.3639C11.547 42.3639 2.63611 33.453 2.63611 22.5C2.63611 11.547 11.547 2.63611 22.5 2.63611C33.453 2.63611 42.3639 11.547 42.3639 22.5C42.3639 33.453 33.453 42.3639 22.5 42.3639Z" fill="#F78F1E"/>
<path d="M22.5 5.27222C21.7721 5.27222 21.1819 5.86236 21.1819 6.59028C21.1819 7.3182 21.7721 7.90833 22.5 7.90833C30.5459 7.90833 37.0917 14.4541 37.0917 22.5C37.0917 30.5459 30.5459 37.0917 22.5 37.0917C21.7721 37.0917 21.1819 37.6818 21.1819 38.4097C21.1819 39.1376 21.7721 39.7278 22.5 39.7278C31.9994 39.7278 39.7278 31.9995 39.7278 22.5C39.7278 13.0005 31.9994 5.27222 22.5 5.27222Z" fill="#F78F1E"/>
<path d="M7.74744 22.4103C7.7492 21.6818 7.16047 21.0905 6.4329 21.0887C6.43202 21.0887 6.43027 21.0887 6.42939 21.0887C5.7027 21.0887 5.11309 21.6766 5.11133 22.4033C5.10957 23.1317 5.69831 23.7231 6.42587 23.7248C7.15432 23.7267 7.74569 23.1379 7.74744 22.4103Z" fill="#F78F1E"/>
<path d="M7.62091 27.1702C7.45308 27.1702 7.28349 27.2019 7.11917 27.2696C6.44608 27.5472 6.12536 28.3179 6.40215 28.991C6.67982 29.6632 7.45044 29.9848 8.12353 29.7071C8.79662 29.4295 9.11734 28.6597 8.83967 27.9866C8.63045 27.4778 8.13838 27.1702 7.62091 27.1702Z" fill="#F78F1E"/>
<path d="M11.0531 32.3317C10.7175 32.3317 10.3818 32.4591 10.1243 32.7141C9.60766 33.2272 9.60502 34.062 10.1182 34.5787C10.1182 34.5787 10.1182 34.5787 10.1182 34.5778C10.6305 35.0945 11.4652 35.098 11.9819 34.5848C12.4986 34.0725 12.5012 33.2378 11.9889 32.7211C11.7306 32.4609 11.3923 32.3317 11.0531 32.3317Z" fill="#F78F1E"/>
<path d="M16.6997 35.9046C16.5327 35.8343 16.3596 35.8009 16.1892 35.8009C15.6751 35.8009 15.1857 36.1041 14.9739 36.6084C14.6918 37.2788 15.0064 38.0522 15.6777 38.3342C16.3491 38.6163 17.1215 38.3017 17.4035 37.6303C17.6856 36.9591 17.371 36.1867 16.6997 35.9046Z" fill="#F78F1E"/>
<path d="M8.1947 15.0996C7.52425 14.8157 6.75099 15.1285 6.46717 15.799C6.18335 16.4695 6.49617 17.2427 7.16662 17.5274C7.33445 17.5985 7.50844 17.6319 7.67978 17.6319C8.19383 17.6319 8.68151 17.3297 8.89415 16.828C9.17797 16.1574 8.86516 15.3834 8.1947 15.0996Z" fill="#F78F1E"/>
<path d="M10.2368 10.2491C9.71926 10.7604 9.71398 11.5952 10.2254 12.1128C10.4829 12.3738 10.8229 12.5047 11.163 12.5047C11.4978 12.5047 11.8325 12.3782 12.0891 12.1243C12.6067 11.6129 12.6119 10.7781 12.1005 10.2605C11.5891 9.7421 10.7544 9.73771 10.2368 10.2491Z" fill="#F78F1E"/>
<path d="M15.8333 6.54713C15.1593 6.82305 14.8368 7.5927 15.1127 8.26588C15.3219 8.77641 15.8139 9.08571 16.3333 9.08571C16.4993 9.08571 16.668 9.05408 16.8315 8.98729C17.5054 8.71138 17.8279 7.94164 17.552 7.26767C17.277 6.59458 16.5072 6.27122 15.8333 6.54713Z" fill="#F78F1E"/>
<path d="M22.4214 34.4899C23.1493 34.4899 23.7394 33.8998 23.7394 33.1719V26.177C25.2735 25.6329 26.3755 24.1679 26.3755 22.4496C26.3755 20.7313 25.2735 19.2662 23.7394 18.7221V11.7744C23.7394 11.0464 23.1493 10.4563 22.4214 10.4563C21.6934 10.4563 21.1033 11.0464 21.1033 11.7744V18.7221C19.5692 19.2662 18.4672 20.7313 18.4672 22.4496C18.4672 24.1679 19.5692 25.6329 21.1033 26.177V33.1719C21.1033 33.8998 21.6933 34.4899 22.4214 34.4899ZM22.4214 21.1316C23.1481 21.1316 23.7394 21.7228 23.7394 22.4496C23.7394 23.1764 23.1481 23.7677 22.4214 23.7677C21.6946 23.7677 21.1033 23.1764 21.1033 22.4496C21.1033 21.7228 21.6946 21.1316 22.4214 21.1316Z" fill="#F78F1E"/>
</svg>
