<svg width="37" height="41" viewBox="0 0 37 41" fill="none" xmlns="http://www.w3.org/2000/svg">
<path d="M7.53421 8.13042C13.5088 2.65495 22.45 2.57122 28.5072 7.56948L23.7061 7.75366C23.0863 7.77878 22.607 8.29786 22.6318 8.92579C22.6566 9.53696 23.1524 10.0142 23.7474 10.0142C23.7639 10.0142 23.7722 10.0142 23.7887 10.0142L31.1598 9.7379C31.7631 9.71278 32.2341 9.21881 32.2341 8.60764V8.52392C32.2341 8.50717 32.2341 8.4988 32.2341 8.48205V8.47368L31.9614 1.08933C31.9366 0.461407 31.416 -0.0241849 30.8045 0.000931993C30.1847 0.0260488 29.7054 0.54513 29.7302 1.17305L29.9038 5.80292C26.9041 3.31636 23.2102 1.87632 19.2603 1.67539C14.3682 1.42422 9.66622 3.12379 6.0385 6.45596C1.04729 11.0356 -1.06819 18.0013 0.518419 24.6322C0.642373 25.1513 1.09687 25.4945 1.60095 25.4945C1.69185 25.4945 1.77449 25.4862 1.86539 25.461C2.46036 25.3103 2.83223 24.6992 2.68348 24.0964C1.2952 18.2693 3.14624 12.1491 7.53421 8.13042Z" fill="#F78F1E"/>
<path d="M36.4816 16.3687C36.3328 15.7659 35.7296 15.3892 35.1346 15.5399C34.5396 15.6906 34.1678 16.3018 34.3165 16.9046C35.7131 22.7317 33.8538 28.8518 29.4658 32.8705C26.3835 35.692 22.5161 37.0818 18.6653 37.0818C14.988 37.0818 11.3189 35.8176 8.36057 33.3226L13.2196 32.8789C13.8311 32.8203 14.2856 32.2761 14.2277 31.6482C14.1699 31.0202 13.6327 30.5681 13.013 30.6267L5.66664 31.2965C5.05513 31.3551 4.60063 31.8993 4.65848 32.5272L5.31957 39.9702C5.36915 40.5563 5.8567 41 6.42689 41C6.45994 41 6.493 41 6.52605 40.9916C7.13756 40.933 7.59206 40.3888 7.53421 39.7609L7.13756 35.2315C10.1372 37.6929 13.8145 39.1246 17.7397 39.3255C18.0538 39.3423 18.3678 39.3507 18.6735 39.3507C23.2268 39.3507 27.5569 37.6595 30.9615 34.545C35.9527 29.9653 38.0682 23.008 36.4816 16.3687Z" fill="#F78F1E"/>
</svg>
