<svg width="17" height="20" viewBox="0 0 17 20" fill="none" xmlns="http://www.w3.org/2000/svg">
<path d="M16.621 19.738H14.621C14.621 16.364 11.791 13.62 8.31 13.62C4.829 13.62 2 16.365 2 19.738H0C0 15.26 3.729 11.62 8.311 11.62C12.892 11.62 16.621 15.26 16.621 19.738Z" fill="#F78F1E"/>
<path d="M8.311 10.97C5.288 10.97 2.827 8.508 2.827 5.485C2.826 2.461 5.287 0 8.311 0C11.336 0 13.797 2.46 13.797 5.485C13.797 8.51 11.336 10.97 8.311 10.97ZM8.311 2C6.389 2 4.826 3.563 4.826 5.485C4.826 7.407 6.389 8.97 8.311 8.97C10.234 8.97 11.797 7.407 11.797 5.485C11.797 3.563 10.232 2 8.311 2Z" fill="#F78F1E"/>
</svg>
