<svg width="22" height="13" viewBox="0 0 22 13" fill="none" xmlns="http://www.w3.org/2000/svg">
<path fill-rule="evenodd" clip-rule="evenodd" d="M21.1774 1.0233C21.3257 0.528855 21.1774 0.165436 20.4715 0.165436H18.1377C17.5442 0.165436 17.2708 0.479342 17.1224 0.82559C17.1224 0.82559 15.9355 3.71843 14.2541 5.59754C13.7101 6.1415 13.4629 6.31437 13.1662 6.31437C13.0178 6.31437 12.8031 6.1415 12.8031 5.64705V1.0233C12.8031 0.429831 12.6309 0.165436 12.1363 0.165436H8.46873C8.09797 0.165436 7.87492 0.440834 7.87492 0.701895C7.87492 1.26453 8.71545 1.39422 8.80214 2.97659V6.41356C8.80214 7.16707 8.66611 7.30377 8.36937 7.30377C7.57819 7.30377 5.65374 4.39776 4.51214 1.07281C4.28842 0.426497 4.06403 0.165436 3.46756 0.165436H1.13368C0.46686 0.165436 0.333496 0.479342 0.333496 0.82559C0.333496 1.44373 1.12485 4.50978 4.01769 8.56473C5.94647 11.3337 8.66344 12.8351 11.136 12.8351C12.6197 12.8351 12.8031 12.5016 12.8031 11.9273V9.83436C12.8031 9.16754 12.9436 9.03451 13.4132 9.03451C13.7596 9.03451 14.3529 9.20755 15.7378 10.5427C17.3201 12.1249 17.5809 12.8351 18.4711 12.8351H20.8049C21.4718 12.8351 21.8052 12.5016 21.6128 11.8437C21.4024 11.1878 20.6469 10.2366 19.6443 9.10869C19.1004 8.46571 18.2844 7.77338 18.0373 7.4273C17.691 6.98219 17.7899 6.78448 18.0373 6.38906C18.0373 6.38906 20.8806 2.38345 21.1774 1.02347V1.0233Z" fill="#A5BBC9"/>
</svg>
