<svg width="15" height="24" viewBox="0 0 15 24" fill="none" xmlns="http://www.w3.org/2000/svg">
<path d="M12.5106 9.65718C10.3711 6.61208 8.34021 4.55566 8.15894 0.521895C8.15894 0.403255 8.12268 0.324162 8.05015 0.245068C8.01389 0.0473349 7.83257 -0.0713051 7.65124 0.0473349C7.43366 0.0473349 7.2524 0.205522 7.2524 0.482349C2.6831 5.8607 -5.04118 19.5043 4.67764 23.4194C9.06561 25.199 14.0338 22.7867 14.9042 17.5665C15.3755 14.7587 14.0337 11.7928 12.5106 9.65718ZM4.71384 20.8884C3.66218 20.2161 3.00942 18.8716 2.68304 17.6852C2.53799 17.092 2.46546 16.4988 2.50172 15.9056C2.71931 14.8774 3.00942 13.8887 3.3358 12.9001C3.51712 13.77 3.87976 14.6401 4.38746 15.2728C5.54792 16.6571 7.90509 17.4875 8.55785 19.2275C8.95676 20.2952 7.3974 21.2049 6.74464 21.4421C6.05562 21.6794 5.29401 21.284 4.71384 20.8884Z" fill="#F78F1E"/>
</svg>
