<svg width="19" height="28" viewBox="0 0 19 28" fill="none" xmlns="http://www.w3.org/2000/svg">
<path d="M19 9.72502C19 4.36264 14.7383 0 9.5 0C4.2617 0 0 4.36264 0 9.72502C0 12.8951 1.48968 15.7156 3.78982 17.4921L0.290189 25.1046L3.93817 25.1535L6.30007 28L9.49995 21.0394L12.6998 28L15.0618 25.1535L18.7098 25.1046L15.2102 17.4921C17.5103 15.7157 19 12.8952 19 9.72502ZM5.91003 24.996L4.68779 23.523L2.80007 23.4977L5.1563 18.3724C6.1734 18.91 7.29687 19.2647 8.48519 19.3945L5.91003 24.996ZM1.6025 9.72502C1.6025 5.26717 5.14524 1.64046 9.5 1.64046C13.8548 1.64046 17.3975 5.26717 17.3975 9.72502C17.3975 14.1829 13.8547 17.8096 9.5 17.8096C5.1453 17.8096 1.6025 14.1829 1.6025 9.72502ZM16.1999 23.4977L14.3122 23.523L13.09 24.996L10.5149 19.3945C11.7032 19.2647 12.8267 18.91 13.8438 18.3724L16.1999 23.4977Z" fill="#F78F1E"/>
<path d="M9.5 3.36295C6.07313 3.36295 3.28514 6.21698 3.28514 9.72502C3.28514 13.2331 6.07308 16.0871 9.5 16.0871C12.9269 16.0871 15.7149 13.2331 15.7149 9.72502C15.7149 6.21698 12.9269 3.36295 9.5 3.36295ZM9.5 14.4466C6.95673 14.4466 4.88764 12.3285 4.88764 9.72502C4.88764 7.12152 6.95673 5.00341 9.5 5.00341C12.0433 5.00341 14.1124 7.12152 14.1124 9.72502C14.1124 12.3285 12.0433 14.4466 9.5 14.4466Z" fill="#F78F1E"/>
</svg>
