<svg width="20" height="23" viewBox="0 0 20 23" fill="none" xmlns="http://www.w3.org/2000/svg">
<path d="M19.3202 13.8158C16.6586 15.2463 16.4023 12.6441 16.4023 12.6441C14.2012 12.3895 12.5636 9.94022 12.5636 9.94022C9.59255 11.4716 11.2478 15.7842 12.5293 17.4403C14.1758 19.5635 12.9697 23 12.9697 23C12.9697 23 6.25868 22.4579 2.83307 18.1713C0.262672 14.9532 0.924774 11.9116 1.65733 9.90397C2.53835 7.48923 3.73025 6.16561 5.46846 4.75676C8.04885 2.66138 12.818 2.39725 12.818 2.39725C12.8495 2.21893 12.9828 2.01224 13.1705 1.79872C12.5994 1.81679 11.9026 1.86299 11.1082 1.96465C10.5632 2.0669 9.96203 2.12723 9.35073 2.30786C8.72781 2.44056 8.09454 2.65547 7.4472 2.905C6.79917 3.14412 6.16416 3.48397 5.53577 3.84235C4.93994 4.25295 4.30678 4.63761 3.8064 5.1801C3.23056 5.64825 2.81203 6.25454 2.38117 6.8364C1.9331 7.40621 1.7122 8.09981 1.37796 8.70181C1.12753 9.34099 0.987322 9.99973 0.799445 10.6017C0.630054 11.2095 0.632728 11.82 0.548207 12.3634C0.476358 12.9123 0.420437 13.4161 0.460314 13.8678C0.474382 14.3167 0.486473 14.7082 0.495657 15.0299C0.51391 15.676 0.525188 16.0442 0.525188 16.0442L0.437179 16.0538C0.437179 16.0538 0.358819 15.6924 0.256859 15.0423C0.209076 14.7138 0.151411 14.3181 0.08398 13.8636C-0.0126323 13.4065 -0.0167013 12.8849 0.0256174 12.3141C0.0720052 11.7443 0.0284076 11.1137 0.159317 10.4617C0.308478 9.81562 0.402533 9.1035 0.665746 8.41801C1.00278 7.76065 1.22961 7.01217 1.69616 6.38156C2.14423 5.73648 2.58741 5.06442 3.20034 4.54324C3.7642 3.96555 4.45583 3.56444 5.10875 3.13844C5.79073 2.77323 6.47829 2.43072 7.16783 2.19392C7.854 1.93652 8.53982 1.77128 9.19646 1.67517C9.84449 1.53448 10.4708 1.51468 11.0388 1.44833C12.0057 1.40306 12.8138 1.44833 13.4419 1.51538C14.2309 0.762842 15.4795 0 15.4795 0C15.2232 0.253354 15.12 1.63175 15.12 1.63175C15.3757 1.17344 16.1947 0.712819 16.1947 0.712819C15.7344 1.78089 16.1947 4.07648 16.1947 4.07648C17.5265 5.40427 19.0109 9.99232 19.0109 9.99232L19.5744 10.8081C20.2931 11.8306 20.0294 13.4352 19.3202 13.8158Z" fill="#F78F1E"/>
</svg>
