<svg width="24" height="24" viewBox="0 0 24 24" fill="none" xmlns="http://www.w3.org/2000/svg">
<path d="M18.0965 12C18.0965 11.6117 18.4113 11.2969 18.7996 11.2969H20.2802C19.9416 7.27434 16.7257 4.05839 12.7031 3.71977V5.20045C12.7031 5.58877 12.3883 5.90358 12 5.90358C11.6117 5.90358 11.2969 5.58877 11.2969 5.20045V3.71977C7.27434 4.05839 4.05839 7.27434 3.71977 11.2969H5.20041C5.58872 11.2969 5.90353 11.6117 5.90353 12C5.90353 12.3883 5.58872 12.7031 5.20041 12.7031H3.71977C4.05839 16.7257 7.27434 19.9416 11.2969 20.2802V18.7995C11.2969 18.4112 11.6117 18.0964 12 18.0964C12.3883 18.0964 12.7031 18.4112 12.7031 18.7995V20.2802C16.7257 19.9416 19.9416 16.7257 20.2802 12.7031H18.7996C18.4113 12.7031 18.0965 12.3883 18.0965 12ZM16.2465 8.64239L12.504 12.4902C12.2435 12.7581 11.8188 12.7755 11.5373 12.5294L8.74359 10.0871C8.45123 9.83156 8.42142 9.38733 8.67703 9.09502C8.93259 8.80266 9.37678 8.77275 9.66919 9.02841L11.9609 11.0318L15.2384 7.66191C15.5092 7.38356 15.9543 7.37742 16.2327 7.64808C16.511 7.91892 16.5172 8.36405 16.2465 8.64239Z" fill="#F78F1E"/>
<path d="M12 0C5.38317 0 0 5.38317 0 12C0 18.6168 5.38317 24 12 24C18.6168 24 24 18.6168 24 12C24 5.38317 18.6168 0 12 0ZM12 21.7165C6.64228 21.7165 2.28347 17.3577 2.28347 12C2.28347 6.64228 6.64228 2.28347 12 2.28347C17.3577 2.28347 21.7165 6.64228 21.7165 12C21.7165 17.3577 17.3577 21.7165 12 21.7165Z" fill="#F78F1E"/>
</svg>
