<svg width="38" height="14" viewBox="0 0 38 14" fill="none" xmlns="http://www.w3.org/2000/svg">
<path d="M0.669273 4.72727C0.669273 4.54545 0.669273 4.36364 0.818001 4.36364C1.26419 4 1.71037 3.81818 2.15656 3.81818H3.79256C3.94129 3.81818 3.94129 3.81818 4.09002 3.81818C4.53621 3.45455 4.83366 3.27273 5.27984 2.90909C6.61839 1.81818 8.2544 1.09091 9.89041 0.545455C10.0391 0.545455 10.0391 0.545455 10.1879 0.545455C11.229 0.181818 12.1213 0 13.0137 0H15.9883C19.1115 0 22.0861 0.909091 24.6145 2.90909L27.8865 5.09091L34.2818 6.36364C35.3229 6.54545 36.2153 7.09091 37.1076 7.81818L35.6204 7.63636C35.4716 7.63636 35.3229 7.81818 35.4716 8L36.0665 8.90909C36.5127 9.45455 37.1076 10 37.8513 10H38C38 10.1818 38 10.3636 37.8513 10.7273L37.4051 12.5455V12.9091C37.4051 13.2727 37.2564 13.6364 36.9589 13.6364L33.9843 13.8182C33.8356 13.8182 33.6869 13.6364 33.6869 13.4545C33.6869 13.0909 33.6869 12.7273 33.6869 12.3636C33.6869 10 32.1996 8 30.4149 8.18182C28.6301 8.18182 27.1429 10 27.1429 12.1818C27.1429 12.7273 27.1429 13.0909 27.1429 13.6364C27.1429 13.8182 26.9941 14 26.8454 14H10.7828C10.6341 14 10.4853 13.8182 10.4853 13.4545C10.4853 13.0909 10.4853 12.7273 10.4853 12.1818C10.4853 10 8.99804 8 7.2133 8C5.42857 8 3.94129 9.81818 3.94129 12C3.94129 12.1818 3.94129 12.1818 3.94129 12.3636C3.94129 12.5455 3.79256 12.9091 3.49511 12.7273L3.04892 12.5455C2.9002 12.5455 2.30528 12.3636 1.71037 11.8182C1.41291 11.6364 1.26419 11.2727 1.26419 11.0909C1.11546 10.7273 0.818001 10.3636 0.520546 10C0.371819 9.81818 0.223091 9.63636 0.223091 9.45455C-0.0743637 8.90909 -0.0743637 8.18182 0.223091 7.63636C0.818005 7.09091 0.966732 5.81818 0.669273 4.72727ZM7.51076 4.36364L8.84931 6.90909C9.14677 7.63636 9.74168 8.36364 10.1879 8.90909C10.4853 9.27273 10.7828 9.45455 10.7828 9.81818C11.229 10.3636 11.229 10.7273 11.5264 11.2727C11.6751 11.6364 11.8239 11.8182 11.9726 12.1818C12.2701 12.5455 12.7162 12.7273 13.0137 12.7273C13.4599 12.7273 14.0548 12.7273 14.6497 12.7273C15.8395 12.7273 16.8806 12.7273 16.8806 12.7273H25.8043C26.1018 12.7273 26.2505 12.5455 26.2505 12.3636V12C26.5479 9.81818 26.3992 7.63636 25.953 5.45455C25.8043 4.72727 25.3581 4 24.7632 3.63636C22.2348 1.81818 19.409 0.727273 16.5832 0.545455H13.9061C12.2701 0.545455 10.4853 1.09091 8.99804 2L8.2544 2.36364C7.80822 2.54545 7.51076 3.09091 7.36203 3.45455C7.36203 3.81818 7.36203 4.18182 7.51076 4.36364Z" fill="#415968"/>
<path d="M7.65942 4.18191C7.51069 4.00009 7.51069 3.81827 7.65942 3.63645C7.80815 3.27282 8.1056 2.72736 8.40306 2.54554L9.1467 2.00009C10.634 1.091 12.2701 0.545455 13.9061 0.545455L15.9882 0.545543L16.4344 3.63645C16.5831 4.90918 16.7318 6.36372 16.7318 7.63645V12.3637C16.2856 12.3637 15.542 12.3637 14.6496 12.3637C14.0547 12.3637 13.4598 12.3637 13.0136 12.3637C12.7162 12.3637 12.4187 12.1819 12.1213 11.8183C11.9725 11.6365 11.8238 11.2728 11.6751 10.9092C11.5263 10.5455 11.3776 10.3637 11.3776 10.1819C11.2289 10.1819 11.2289 10.0001 10.9314 9.63645C10.7827 9.27282 10.4852 9.091 10.1878 8.72736C9.59288 8.18191 9.14677 7.63636 8.84931 6.90909L7.65942 4.18191ZM8.40306 4.36373C8.70052 4.72736 9.1467 4.90918 9.59288 4.90918H15.8395C15.9882 4.90918 15.9882 4.72736 15.9882 4.54554L15.6907 1.63645C15.6907 1.27282 15.3933 1.091 15.2445 1.091H13.6085C12.1213 1.091 10.7827 1.63645 9.44415 2.54554L8.99797 2.90918C8.70051 3.091 8.55179 3.45463 8.40306 3.81827C8.25433 4.00009 8.25433 4.18191 8.40306 4.36373Z" fill="#415968"/>
<path d="M16.5831 3.818L16.1369 0.727095H16.5831C19.4089 0.908913 22.2348 1.99982 24.6144 3.818C25.2093 4.18164 25.6555 4.7271 25.8042 5.45437C26.2504 7.63619 26.3991 9.818 26.1017 11.9998V12.3635C26.1017 12.5453 25.953 12.7273 25.8043 12.7273H16.8806L16.8806 7.818C16.8806 6.54528 16.8806 5.09073 16.5831 3.818ZM16.5831 1.63619L17.178 4.36346C17.178 4.7271 17.4755 4.90891 17.7729 4.90891L22.9784 5.27255C22.9784 5.818 23.2759 6.18164 23.722 6.18164H24.7631C24.9119 6.18164 24.9119 6.18164 25.0606 6.18164C25.0606 6.18164 25.0606 6.18164 25.0606 5.99982C25.0606 5.99982 25.0606 5.99982 24.9119 5.99982H23.5733C23.4246 5.99982 23.1271 5.818 23.1271 5.45437C23.1271 5.09073 23.4246 4.7271 23.722 4.7271H24.9119C22.8297 3.09073 20.45 1.99982 18.0704 1.63619L17.0293 1.45437C16.7318 1.09073 16.5831 1.27255 16.5831 1.63619Z" fill="#415968"/>
</svg>
