<svg width="26" height="22" viewBox="0 0 26 22" fill="none" xmlns="http://www.w3.org/2000/svg">
<path d="M23.9231 7.33333H1.85278V17.6H23.9231V7.33333ZM8.44458 11.7333H5.51489C5.11015 11.7333 4.78247 11.4052 4.78247 11C4.78247 10.5948 5.11015 10.2667 5.51489 10.2667H8.44458C8.84932 10.2667 9.177 10.5948 9.177 11C9.177 11.4052 8.84932 11.7333 8.44458 11.7333ZM14.3528 11.7333C14.6488 11.7333 14.9164 11.9117 15.0293 12.1859C15.1432 12.4602 15.0802 12.7753 14.8706 12.9852L11.9409 15.9185C11.6548 16.2049 11.1914 16.2049 10.9053 15.9185C10.6191 15.632 10.6191 15.168 10.9053 14.8815L12.5847 13.2H11.4231C11.1271 13.2 10.8595 13.0216 10.7466 12.7474C10.6327 12.4732 10.6956 12.1581 10.9053 11.9482L13.8349 9.01484C14.121 8.72838 14.5845 8.72838 14.8706 9.01484C15.1567 9.3013 15.1567 9.76536 14.8706 10.0518L13.1912 11.7333H14.3528ZM20.261 11.7333H19.5286V12.4667C19.5286 12.8719 19.2009 13.2 18.7961 13.2C18.3914 13.2 18.0637 12.8719 18.0637 12.4667V11.7333H17.3313C16.9266 11.7333 16.5989 11.4052 16.5989 11C16.5989 10.5948 16.9266 10.2667 17.3313 10.2667H18.0637V9.53333C18.0637 9.12809 18.3914 8.8 18.7961 8.8C19.2009 8.8 19.5286 9.12809 19.5286 9.53333V10.2667H20.261C20.6657 10.2667 20.9934 10.5948 20.9934 11C20.9934 11.4052 20.6657 11.7333 20.261 11.7333Z" fill="#415968"/>
<path d="M23.9231 19.0667H1.85278C1.04369 19.0667 0.387939 19.7232 0.387939 20.5333V21.2667C0.387939 21.6717 0.715813 22 1.12036 22H24.6555C25.0601 22 25.3879 21.6717 25.3879 21.2667V20.5333C25.3879 19.7232 24.7322 19.0667 23.9231 19.0667Z" fill="#415968"/>
<path d="M23.9231 2.93333H22.4583V0.733333C22.4583 0.32809 22.1306 0 21.7258 0H17.3313C16.9266 0 16.5989 0.32809 16.5989 0.733333V2.93333H9.177V0.733333C9.177 0.32809 8.84932 0 8.44458 0H4.05005C3.64531 0 3.31763 0.32809 3.31763 0.733333V2.93333H1.85278C1.04369 2.93333 0.387939 3.5899 0.387939 4.4C0.387939 5.20991 1.04369 5.86667 1.85278 5.86667H23.9231C24.7322 5.86667 25.3879 5.20991 25.3879 4.4C25.3879 3.5899 24.7322 2.93333 23.9231 2.93333Z" fill="#415968"/>
</svg>
