<svg width="27" height="22" viewBox="0 0 27 22" fill="none" xmlns="http://www.w3.org/2000/svg">
<path d="M18.7879 14.2001C18.1879 13.8001 17.0879 13.7001 16.0879 14.1001V16.4001C17.2879 16.1001 18.4879 16.1001 19.1879 16.6001C19.2879 16.6001 19.2879 16.7001 19.2879 16.7001V15.0001C19.2879 14.7001 19.0879 14.4001 18.7879 14.2001Z" fill="#415968"/>
<path d="M18.7879 17.1C18.1879 16.7 17.0879 16.6 16.0879 17V19.3C17.2879 19 18.4879 19 19.1879 19.5C19.2879 19.5 19.2879 19.6 19.2879 19.6V17.9C19.2879 17.6 19.0879 17.3 18.7879 17.1Z" fill="#415968"/>
<path d="M18.7879 11.3C18.1879 10.9 17.0879 10.8 16.0879 11.2V13.5C17.2879 13.2 18.4879 13.2 19.1879 13.7C19.2879 13.7 19.2879 13.8 19.2879 13.8V12.1C19.2879 11.8 19.0879 11.5 18.7879 11.3Z" fill="#415968"/>
<path d="M18.7879 5.4999C18.1879 5.0999 17.0879 4.9999 16.0879 5.3999V7.6999C17.2879 7.3999 18.4879 7.3999 19.1879 7.8999C19.1879 7.9999 19.1879 7.9999 19.2879 7.9999V6.3999C19.2879 5.9999 19.0879 5.6999 18.7879 5.4999Z" fill="#415968"/>
<path d="M22.488 0H19.788V22H22.488V0Z" fill="#415968"/>
<path d="M18.7879 2.6C18.1879 2.2 17.0879 2.1 16.0879 2.5V4.8C17.2879 4.5 18.3879 4.6 19.0879 5C19.1879 5 19.1879 5.1 19.1879 5.1V3.5C19.2879 3.1 19.0879 2.8 18.7879 2.6Z" fill="#415968"/>
<path d="M18.7879 8.40005C18.1879 8.00005 17.0879 7.90005 16.0879 8.30005V10.6C17.2879 10.3 18.4879 10.3001 19.1879 10.8001C19.2879 10.8001 19.2879 10.9 19.2879 10.9V9.30005C19.2879 8.90005 19.0879 8.60005 18.7879 8.40005Z" fill="#415968"/>
<path d="M23.4879 17.1C23.1879 17.3 22.9879 17.6 22.9879 18V19.7L23.0879 19.6C23.7879 19.1 24.9879 19 26.1879 19.4V17C25.1879 16.6 24.0879 16.6 23.4879 17.1Z" fill="#415968"/>
<path d="M23.4879 5.4999C23.1879 5.6999 22.9879 5.9999 22.9879 6.3999V7.9999L23.0879 7.8999C23.7879 7.3999 24.9879 7.2999 26.1879 7.6999V5.3999C25.1879 4.9999 24.0879 5.0999 23.4879 5.4999Z" fill="#415968"/>
<path d="M23.4879 14.2001C23.1879 14.4001 22.9879 14.7001 22.9879 15.1001V16.8001L23.0879 16.7001C23.7879 16.2001 24.9879 16.1001 26.1879 16.5001V14.2001C25.1879 13.7001 24.0879 13.8001 23.4879 14.2001Z" fill="#415968"/>
<path d="M16.0879 1.4V1.9C17.2879 1.6 18.4879 1.6 19.1879 2.1C19.2879 2.1 19.2879 2.2 19.2879 2.2V0H17.8879C16.8879 0 16.0879 0.6 16.0879 1.4Z" fill="#415968"/>
<path d="M18.7879 19.9999C18.1879 19.5999 17.0879 19.4999 16.0879 19.8999V20.5999C16.0879 21.3999 16.8879 21.9999 17.8879 21.9999H19.2879V20.7999C19.2879 20.4999 19.0879 20.1999 18.7879 19.9999Z" fill="#415968"/>
<path d="M23.4879 20.0001C23.1879 20.2001 22.9879 20.5001 22.9879 20.9001V22.0001H24.3879C25.3879 22.0001 26.1879 21.4001 26.1879 20.6001V19.9001C25.1879 19.5001 24.0879 19.5001 23.4879 20.0001Z" fill="#415968"/>
<path d="M24.3879 0H22.9879V2.3L23.0879 2.2C23.7879 1.7 24.9879 1.6 26.1879 2V1.4C26.2879 0.6 25.3879 0 24.3879 0Z" fill="#415968"/>
<path d="M23.4879 11.3C23.1879 11.5 22.9879 11.8 22.9879 12.2V13.9L23.0879 13.8C23.7879 13.3 24.9879 13.2 26.1879 13.6V11.3C25.1879 10.8 24.0879 10.9 23.4879 11.3Z" fill="#415968"/>
<path d="M23.4879 8.40005C23.1879 8.60005 22.9879 8.90005 22.9879 9.30005V11L23.0879 10.9C23.7879 10.4 24.9879 10.3001 26.1879 10.7001V8.30005C25.1879 7.90005 24.0879 8.00005 23.4879 8.40005Z" fill="#415968"/>
<path d="M23.4879 2.6C23.1879 2.8 22.9879 3.1 22.9879 3.5V5.2L23.0879 5.1C23.7879 4.6 24.9879 4.5 26.1879 4.9V2.5C25.1879 2.1 24.0879 2.2 23.4879 2.6Z" fill="#415968"/>
<path d="M15.4879 1.4C15.4879 1.2 15.4879 1 15.5879 0.8C14.2879 0.3 12.8879 0 11.3879 0C5.28794 0 0.387939 4.9 0.387939 11C0.387939 17.1 5.28794 22 11.3879 22C12.8879 22 14.2879 21.7 15.5879 21.2C15.4879 21 15.4879 20.8 15.4879 20.6V18.5C14.2879 19.2 12.8879 19.6 11.3879 19.6C6.68794 19.6 2.78794 15.8 2.78794 11C2.78794 6.3 6.58794 2.4 11.3879 2.4C12.8879 2.4 14.2879 2.8 15.4879 3.5V1.4Z" fill="#415968"/>
<path d="M15.4879 7.2V4.2C14.2879 3.4 12.7879 3 11.3879 3C9.28791 3 7.28792 3.8 5.78792 5.3C4.28792 6.8 3.48792 8.9 3.48792 11C3.48792 13.1 4.28792 15.1 5.78792 16.6C7.28792 18.1 9.28791 18.9 11.3879 18.9C12.8879 18.9 14.2879 18.5 15.4879 17.7V16.4C14.8879 16.9 14.1879 17.2 13.4879 17.5C12.9879 17.7 12.4879 17.3 12.4879 16.7V14.1C12.4879 13.3 13.2879 12.7 14.0879 13L15.5879 13.5V11.2L14.7879 10.9C13.9879 10.6 13.6879 9.7 14.1879 9.1L15.4879 7.2ZM4.48792 11C4.48792 9.5 4.98792 8.1 5.78792 7C6.08792 6.6 6.78791 6.6 7.08791 7L8.58792 9.1C9.08792 9.8 8.78792 10.7 7.98792 10.9L5.48792 11.7C5.08791 11.9 4.48792 11.5 4.48792 11ZM10.2879 16.8C10.2879 17.3 9.78791 17.7 9.28791 17.6C7.88791 17.1 6.68792 16.3 5.88792 15.1C5.58791 14.7 5.78792 14 6.28792 13.9L8.78791 13C9.58791 12.7 10.3879 13.3 10.3879 14.1V16.8H10.2879ZM13.8879 5.7L12.3879 7.8C11.8879 8.5 10.8879 8.5 10.4879 7.8L8.88791 5.7C8.58791 5.3 8.78791 4.6 9.28791 4.5C9.98791 4.3 10.6879 4.2 11.3879 4.2C12.0879 4.2 12.7879 4.3 13.4879 4.5C13.9879 4.6 14.1879 5.3 13.8879 5.7Z" fill="#415968"/>
</svg>
