<svg width="20" height="19" viewBox="0 0 20 19" fill="none" xmlns="http://www.w3.org/2000/svg">
<path d="M4.70135 14.7993L6.74118 14.5367C6.84317 13.1365 6.74118 11.3863 6.23122 9.46097C5.82326 7.7107 5.10932 6.22297 4.39538 5.0853C4.1914 4.56022 3.68144 4.29768 3.06949 4.29768C2.86551 4.29768 2.55954 4.29768 2.35555 4.29768C1.33564 4.29768 0.51971 5.0853 0.723693 5.96043L3.37547 15.9369C3.47746 15.3244 3.98741 14.8868 4.70135 14.7993Z" fill="#415968"/>
<path d="M2.04957 4.03519L2.25355 3.94768C3.37546 3.59762 3.68143 2.72249 3.57944 1.75984C3.37546 0.88471 2.76351 0.184604 1.6416 0.00957715H1.43762C0.621691 -0.0779361 -0.0922477 0.447144 0.00974355 1.05974L0.315717 3.24757C0.417709 3.94768 1.23364 4.29773 2.04957 4.03519Z" fill="#415968"/>
<path d="M16.4303 13.5742L4.70131 15.0619C4.08936 15.1495 3.57941 15.587 3.57941 16.1996C3.57941 16.8122 4.19135 17.3373 4.90529 17.3373H18.6741C19.3881 17.3373 20 16.8122 20 16.1996C20 14.5369 18.2661 13.3117 16.4303 13.5742ZM5.00728 16.6372C4.70131 16.6372 4.49733 16.4622 4.49733 16.1996C4.49733 15.9371 4.70131 15.762 5.00728 15.762C5.31326 15.762 5.51724 15.9371 5.51724 16.1996C5.51724 16.4622 5.31326 16.6372 5.00728 16.6372Z" fill="#415968"/>
<path d="M17.2462 17.5123H5.72121C5.41524 17.5123 5.21125 17.8623 5.41524 18.0374L5.51723 18.1249C6.12918 18.7375 6.94511 19 7.86303 19H15.2064C16.0223 19 16.8383 18.7375 17.4502 18.1249L17.5522 17.9498C17.7562 17.8623 17.5522 17.5123 17.2462 17.5123ZM16.5323 18.1249C16.0223 18.4749 15.4104 18.6499 14.7984 18.6499H8.169C7.55705 18.6499 6.84311 18.4749 6.43515 18.1249C6.33316 18.1249 6.43515 18.0374 6.43515 18.0374H16.4303C16.5323 17.9498 16.5323 18.0374 16.5323 18.1249Z" fill="#415968"/>
<path d="M5.00738 15.8494C4.8034 15.8494 4.70141 15.9369 4.70141 16.1119C4.70141 16.287 4.8034 16.3745 5.00738 16.3745C5.21137 16.3745 5.31336 16.287 5.31336 16.1119C5.31336 16.0244 5.21137 15.8494 5.00738 15.8494Z" fill="#415968"/>
</svg>
