<svg width="20" height="22" viewBox="0 0 20 22" fill="none" xmlns="http://www.w3.org/2000/svg">
<path d="M3.50008 7.00008C2.1193 7.00008 0.999964 5.88078 0.999964 4.50006C0.999964 3.11934 2.1193 2.00004 3.50008 2.00004C4.88086 2.00004 6.0002 3.11934 6.0002 4.50006C6.0002 5.88078 4.88086 7.00008 3.50008 7.00008Z" fill="#415968"/>
<path d="M15.0007 10.0002C12.2391 10.0002 10.0004 7.76155 10.0004 5.00008C10.0004 2.23861 12.2391 0 15.0007 0C17.7623 0 20 2.23861 20 5.00008C20 7.76155 17.7623 10.0002 15.0007 10.0002Z" fill="#415968"/>
<path d="M0.103333 7.19616C0.271296 6.97641 0.587715 6.93638 0.803587 7.10339L2.60092 8.48083C2.78885 8.30224 3.01072 8.15903 3.26564 8.077L3.26761 8.07653C3.55961 7.98376 4.19246 7.9442 4.70127 8.15074L8.84116 9.99989H12.4986C13.3268 9.99989 13.9997 10.6727 13.9997 11.4999C13.9997 12.3271 13.3268 12.9999 12.4986 12.9999H8.49839C8.26597 12.9999 8.03351 12.9452 7.84698 12.8515L6.01679 12.0375L6.62231 14.4247L13.65 14.0024C14.2214 13.977 14.7781 14.2231 15.1306 14.6752L18.6318 19.1753C19.2246 19.9375 19.0868 21.0391 18.3251 21.6318C18.0145 21.8725 17.6434 22 17.2518 22C16.7068 22 16.2029 21.7539 15.8699 21.3247L12.9332 17.5512C5.34588 18.0014 5.3156 18.0014 5.29605 18.0014C4.76235 18.0014 4.28171 17.7167 3.96604 17.2769L1.79978 18.9003C1.70992 18.9678 1.60444 19.0004 1.49995 19.0004C1.34859 19.0004 1.19816 18.9316 1.09953 18.8002C0.934471 18.5795 0.97938 18.266 1.20013 18.1005L3.57592 16.3201L2.05859 10.344C1.97224 10.0052 1.98851 9.66027 2.08044 9.34128L0.196196 7.89723C-0.0236607 7.72937 -0.0646763 7.4154 0.103333 7.19616Z" fill="#415968"/>
</svg>
