<svg width="18" height="21" viewBox="0 0 18 21" fill="none" xmlns="http://www.w3.org/2000/svg">
<path d="M6.66031 2.88076L2.22687 7.45464C1.95044 7.73562 1.98584 8.05903 2.17716 8.40364C2.44643 8.75887 2.9248 8.7443 3.20123 8.46332L7.63467 3.88944C7.9111 3.60846 7.8757 3.28505 7.68438 2.94044C7.41511 2.58521 6.93673 2.59978 6.66031 2.88076Z" fill="#415968"/>
<path d="M8.47796 5.27848L3.96657 9.84176C3.69014 10.1227 3.72554 10.4461 3.91685 10.7908C4.18612 11.146 4.6645 11.1314 4.94093 10.8504L9.37437 6.27655C9.6508 5.99557 9.61539 5.67216 9.42408 5.32755C9.23277 4.98293 8.75439 4.9975 8.47796 5.27848Z" fill="#415968"/>
<path d="M10.2955 7.67629L5.86206 12.2502C5.59627 12.453 5.54308 12.844 5.74503 13.1104C6.0143 13.4656 6.49268 13.451 6.7691 13.17L11.2699 8.68497C11.5463 8.40399 11.5109 8.08059 11.3196 7.73597C11.0503 7.38075 10.5719 7.39531 10.2955 7.67629Z" fill="#415968"/>
<path d="M12.1131 10.0741L7.67965 14.648C7.40323 14.9289 7.43863 15.2524 7.62994 15.597C7.89921 15.9522 8.37759 15.9376 8.65402 15.6566L13.0875 11.0828C13.3639 10.8018 13.3285 10.4784 13.1372 10.1338C12.9352 9.86734 12.3895 9.7931 12.1131 10.0741Z" fill="#415968"/>
<path d="M8.07667 12.3126L8.67189 13.1901L10.8833 10.9422L10.1995 10.1324L8.07667 12.3126Z" fill="#415968"/>
<path d="M6.25915 9.91472L6.85437 10.7922L9.06577 8.54432L8.38196 7.73447L6.25915 9.91472Z" fill="#415968"/>
<path d="M4.4416 7.51713L5.04746 8.31638L7.17026 6.13613L6.5644 5.33688L4.4416 7.51713Z" fill="#415968"/>
<path d="M6.17149 1.22132L5.37413 1.82966C5.28554 1.89726 5.20758 1.88665 5.14026 1.79784L4.60172 1.0874C4.5344 0.998596 4.45645 0.987991 4.36785 1.05558L3.3933 1.79911C3.30471 1.86671 3.22675 1.8561 3.15943 1.7673L2.21699 0.52402C1.8804 0.0799929 1.25675 -0.00485414 0.81377 0.333114C0.370793 0.671083 0.285681 1.29668 0.622269 1.74071L1.56471 2.98398C1.63203 3.07279 1.62139 3.15098 1.5328 3.21858L0.558248 3.96211C0.469653 4.0297 0.459014 4.1079 0.526332 4.19671L1.06487 4.90715C1.13219 4.99596 1.12155 5.07415 1.03296 5.14175L0.235596 5.75009C0.147001 5.81769 0.136362 5.89589 0.20368 5.98469L0.674902 6.60633L0.752859 6.61693L2.43617 5.33265L2.51413 5.34326L2.98535 5.9649L5.10816 3.78465L4.83889 3.42943L4.84953 3.35123L6.53284 2.06695L6.54348 1.98875L6.07225 1.36711C6.33804 1.16433 6.18213 1.14312 6.17149 1.22132Z" fill="#415968"/>
<path d="M14.2531 12.436L12.9242 13.4499C12.8356 13.5175 12.7577 13.5069 12.6903 13.4181L12.0172 12.53L9.89437 14.7103L10.2983 15.2431C10.3656 15.3319 10.355 15.4101 10.2664 15.4777L8.93742 16.4916C8.76023 16.6268 8.71768 16.9396 8.85231 17.1172L9.1889 17.5613C9.32354 17.7389 9.63536 17.7813 9.81255 17.6461L10.4327 17.1729C10.5213 17.1054 10.6666 17.2048 10.656 17.283C10.5496 18.065 10.8223 18.9782 11.3609 19.6886C12.4379 21.1095 14.5428 21.3959 15.9603 20.3144C17.4664 19.1653 17.7537 17.0539 16.6093 15.5442C16.0707 14.8338 15.3337 14.4149 14.5541 14.3088C14.4762 14.2982 14.4195 14.1312 14.5081 14.0636L15.1283 13.5905C15.3055 13.4553 15.348 13.1425 15.2134 12.9649L14.8768 12.5209C14.7528 12.2651 14.5189 12.2332 14.2531 12.436ZM14.9612 18.9041C14.2524 19.4448 13.239 19.307 12.7004 18.5965C12.1619 17.8861 12.3002 16.8695 13.009 16.3287C13.7177 15.788 14.7312 15.9259 15.2697 16.6363C15.8082 17.3467 15.6699 18.3633 14.9612 18.9041Z" fill="#415968"/>
</svg>
