<svg width="28" height="20" viewBox="0 0 28 20" fill="none" xmlns="http://www.w3.org/2000/svg">
<path d="M27.03 9.51737L24.0002 7.22082C23.7262 7.01316 23.3594 6.97792 23.051 7.13136C22.7436 7.28343 22.5489 7.59697 22.5489 7.94018V9.3454H21.6527V7.92521C21.6527 7.42637 21.2477 7.02192 20.7482 7.02192H18.9476V3.6681C18.9476 3.16917 18.5425 2.76481 18.043 2.76481H15.2297V1.80621H15.987C16.4866 1.80621 16.8917 1.40176 16.8917 0.903012C16.8917 0.40427 16.4866 0 15.987 0H10.1433C9.64383 0 9.23874 0.40427 9.23874 0.903012C9.23874 1.40176 9.64383 1.80621 10.1433 1.80621H10.9012V2.76481H7.40425C6.90471 2.76481 6.49962 3.16917 6.49962 3.6681V5.43095H4.73305C4.23343 5.43095 3.82842 5.83531 3.82842 6.33405V8.40003H2.19689V5.83759C2.19689 5.33885 1.79189 4.93449 1.29236 4.93449C0.792821 4.93439 0.387909 5.33885 0.387909 5.8375V15.2839C0.387909 15.7826 0.792821 16.1869 1.29245 16.1869C1.79198 16.1869 2.19698 15.7825 2.19698 15.2839V12.7213H3.82861V14.8392C3.82861 15.3381 4.23361 15.7423 4.73324 15.7423H7.00793L10.1992 19.6663C10.371 19.8774 10.629 20 10.9014 20H20.7484C21.248 20 21.6529 19.5955 21.6529 19.0968V17.9035H22.5491V19.0968C22.5491 19.4496 22.7547 19.7697 23.0755 19.9174C23.1964 19.9728 23.3255 19.9999 23.4535 19.9999C23.6655 19.9999 23.8749 19.9254 24.0424 19.7824L27.0722 17.1897C27.2727 17.018 27.3879 16.7676 27.3879 16.5039V10.2365C27.3877 9.95441 27.2553 9.68806 27.03 9.51737Z" fill="#415968"/>
</svg>
