<svg width="23" height="22" viewBox="0 0 23 22" fill="none" xmlns="http://www.w3.org/2000/svg">
<path d="M10.5556 6.84244C7.77469 6.84244 5.60211 9.0944 5.60211 11.8661C5.60211 14.6377 7.86159 16.8031 10.5556 16.8031C13.3365 16.8031 15.5091 14.5511 15.5091 11.8661C15.5091 9.18102 13.3365 6.84244 10.5556 6.84244ZM10.5556 7.88181C10.9032 7.88181 11.2508 8.22826 11.2508 8.57472C11.2508 8.92118 10.9032 9.26763 10.5556 9.26763C10.208 9.26763 9.86037 8.92118 9.86037 8.57472C9.86037 8.22826 10.1211 7.88181 10.5556 7.88181ZM7.25327 11.5196C6.90566 11.433 6.64495 10.9999 6.81875 10.6535C6.90566 10.307 7.34017 10.0472 7.68779 10.2204C8.0354 10.307 8.29611 10.7401 8.1223 11.0865C8.0354 11.433 7.68779 11.6062 7.25327 11.5196ZM9.25205 14.8109C8.99134 15.1574 8.55682 15.1574 8.29611 14.9842C7.9485 14.7243 7.9485 14.2913 8.1223 14.0314C8.38301 13.685 8.81753 13.685 9.07824 13.8582C9.42585 14.0314 9.42585 14.4645 9.25205 14.8109ZM10.5556 13.1653C9.77347 13.1653 9.16514 12.559 9.16514 11.7794C9.16514 10.9999 9.77347 10.3936 10.5556 10.3936C11.3377 10.3936 11.946 10.9999 11.946 11.7794C11.8591 12.559 11.3377 13.1653 10.5556 13.1653ZM12.8151 14.9842C12.4675 15.244 12.033 15.1574 11.8591 14.8109C11.5984 14.4645 11.6853 14.0314 12.033 13.8582C12.3806 13.685 12.8151 13.685 12.9889 14.0314C13.2496 14.2913 13.1627 14.7243 12.8151 14.9842ZM14.2924 10.5668C14.3793 10.9133 14.2055 11.3464 13.8579 11.433C13.5103 11.5196 13.0758 11.3464 12.9889 10.9999C12.902 10.6535 13.0758 10.2204 13.4234 10.1338C13.771 10.0472 14.1186 10.2204 14.2924 10.5668Z" fill="#415968"/>
<path d="M22.3744 11.0866C22.0268 5.11024 17.2471 0.346457 11.2508 0C10.9032 0 10.5556 0.259843 10.5556 0.692913V3.98425C10.5556 4.33071 10.8163 4.59055 11.1639 4.67717C14.64 4.93701 17.4209 7.70866 17.7685 11.2598C17.7685 11.6063 18.1161 11.8661 18.4638 11.8661H21.7661C22.1137 11.8661 22.4613 11.5197 22.3744 11.0866Z" fill="#415968"/>
<path d="M17.3341 11.2598C17.0733 7.9685 14.4662 5.37008 11.1639 5.11024C10.6425 5.02362 10.208 4.59055 10.208 4.07087V1.73228C4.73307 1.90551 0.387909 6.40945 0.387909 11.8661C0.387909 17.4961 4.90688 22 10.5556 22C16.0305 22 20.4626 17.6693 20.7233 12.2992H18.4638C17.8555 12.2126 17.3341 11.7795 17.3341 11.2598ZM10.5556 17.5827C7.34017 17.5827 4.73307 14.9843 4.73307 11.7795C4.73307 8.66142 7.34017 6.06299 10.5556 6.06299C13.771 6.06299 16.3781 8.66142 16.3781 11.8661C16.3781 14.9843 13.771 17.5827 10.5556 17.5827Z" fill="#415968"/>
</svg>
