<svg width="18" height="22" viewBox="0 0 18 22" fill="none" xmlns="http://www.w3.org/2000/svg">
<path d="M7.8365 13.8865H5.00768C4.92686 13.8865 4.76521 13.9645 4.76521 14.1205L3.95698 19.5816C3.95698 19.7376 4.0378 19.8156 4.19945 19.8156H7.75568C7.91733 19.8156 7.99815 19.7376 7.99815 19.5816V17.8652H12.6051C12.7667 17.8652 12.8475 17.7092 12.8475 17.6312L12.1201 11.078C12.1201 10.9219 12.0393 10.8439 11.8777 10.8439V11.7021C11.8777 12.0922 11.5544 12.4822 11.1503 12.4822C10.9886 12.4822 10.827 12.4822 10.6653 12.4822C10.5037 12.4822 10.342 12.4822 10.1804 12.4822C9.77626 12.4822 9.45297 12.0922 9.45297 11.7021V10.8439C9.29132 10.8439 9.2105 10.9219 9.2105 11.078L9.29132 15.3688H8.07897V14.1205C8.07897 13.9645 7.99815 13.8865 7.8365 13.8865Z" fill="#415968"/>
<path d="M17.2928 18.7234L15.4339 10.7659C15.1914 9.67372 14.3831 8.89357 13.4133 8.89357H11.8776V10.3758H13.3324C13.4941 10.3758 13.7366 10.6099 13.8982 11.078L15.7571 19.0354C15.9188 19.5816 15.7571 20.0496 15.5147 20.2837C15.4339 20.3617 15.353 20.4397 15.1914 20.4397H2.50212C2.34047 20.4397 2.25965 20.3617 2.17882 20.2837C2.01718 20.0496 1.85553 19.5816 2.01718 19.0354L3.87611 11.078C3.95694 10.6879 4.19941 10.3758 4.44188 10.3758H9.29128V8.89357H4.44188C3.472 8.89357 2.66376 9.67372 2.42129 10.7659L0.481533 18.7234C0.239063 19.5816 0.481533 20.5957 1.0473 21.2199C1.45141 21.6879 2.01718 22 2.58294 22H15.2722C15.838 22 16.4037 21.766 16.8078 21.2199C17.2928 20.5957 17.5353 19.5816 17.2928 18.7234Z" fill="#415968"/>
<path d="M10.5844 6.63123C12.5242 6.63123 14.0598 5.14895 14.0598 3.27661C14.0598 1.40426 12.4434 0 10.5844 0C8.64466 0 7.10901 1.48227 7.10901 3.35462C7.10901 5.22697 8.64466 6.63123 10.5844 6.63123Z" fill="#415968"/>
<path d="M9.45291 6.78722L9.45297 11.7021C9.45297 12.0141 9.69538 12.2482 10.0187 12.3262C10.1803 12.3262 10.342 12.3262 10.5036 12.3262C10.6653 12.3262 10.8269 12.3262 10.9886 12.3262C11.3118 12.3262 11.5543 12.0142 11.5543 11.7021V9.24467V6.78722C11.3927 6.86523 11.231 6.86523 10.9886 6.94325H10.1804C10.1804 7.09928 10.0187 7.43188 10.0187 7.79004C10.0186 8.14819 10.1884 6.60632 10.1122 10C9.88791 11 10.7112 4.7464 10.5036 9.60456C11.2824 7.79004 10.1804 7.09928 10.1804 6.94325H9.85703C9.85703 6.86523 9.61456 6.86523 9.45291 6.78722Z" fill="#415968"/>
</svg>
