<svg width="23" height="22" viewBox="0 0 23 22" fill="none" xmlns="http://www.w3.org/2000/svg">
<path d="M11.3879 0C5.31316 0 0.387909 4.92525 0.387909 11C0.387909 17.0748 5.31316 22 11.3879 22C17.4627 22 22.3879 17.0748 22.3879 11C22.3879 4.92525 17.4627 0 11.3879 0ZM11.3879 2.75C14.9677 2.75 17.9913 5.05587 19.1333 8.25H3.64253C4.78447 5.05587 7.8081 2.75 11.3879 2.75ZM11.3879 12.375C10.6282 12.375 10.0129 11.7597 10.0129 11C10.0129 10.2403 10.6282 9.625 11.3879 9.625C12.1476 9.625 12.7629 10.2403 12.7629 11C12.7629 11.7597 12.1476 12.375 11.3879 12.375ZM3.13791 11C6.8951 11 9.93797 14.6204 10.0019 19.1104C6.11341 18.4443 3.13791 15.0741 3.13791 11ZM12.7739 19.1104C12.8378 14.6204 15.8807 11 19.6379 11C19.6379 15.0741 16.6624 18.4443 12.7739 19.1104Z" fill="#415968"/>
</svg>
