<svg width="17" height="22" viewBox="0 0 17 22" fill="none" xmlns="http://www.w3.org/2000/svg">
<path d="M13.311 15.5547H14.5418C15.5597 15.5547 16.3879 16.4221 16.3879 17.4883V20.0664C16.3879 21.1326 15.5597 22 14.5418 22H13.311C12.2931 22 11.4649 21.1326 11.4649 20.0664V19.4219H10.1208C9.86582 20.1705 9.18922 20.7109 8.38794 20.7109C7.58666 20.7109 6.91005 20.1705 6.65509 19.4219H5.31102V20.0664C5.31102 21.1326 4.48281 22 3.46486 22H2.23409C1.21614 22 0.387939 21.1326 0.387939 20.0664V17.4883C0.387939 16.4221 1.21614 15.5547 2.23409 15.5547H3.46486C4.48281 15.5547 5.31102 16.4221 5.31102 17.4883V18.1328H6.65509C6.7357 17.8961 6.85765 17.6825 7.01406 17.4984L6.77336 14.1794C5.93906 13.9937 5.31102 13.2174 5.31102 12.2891V9.71094C5.31102 8.78258 5.93906 8.00629 6.77336 7.82065L7.01406 4.50165C6.85765 4.31752 6.7357 4.10385 6.65509 3.86719H5.31102V4.51172C5.31102 5.57788 4.48281 6.44531 3.46486 6.44531H2.23409C1.21614 6.44531 0.387939 5.57788 0.387939 4.51172V1.93359C0.387939 0.867432 1.21614 0 2.23409 0H3.46486C4.48281 0 5.31102 0.867432 5.31102 1.93359V2.57812H6.65509C6.91005 1.82953 7.58666 1.28906 8.38794 1.28906C9.18922 1.28906 9.86582 1.82953 10.1208 2.57812H11.4649V1.93359C11.4649 0.867432 12.2931 0 13.311 0H14.5418C15.5597 0 16.3879 0.867432 16.3879 1.93359V4.51172C16.3879 5.57788 15.5597 6.44531 14.5418 6.44531H13.311C12.2931 6.44531 11.4649 5.57788 11.4649 4.51172V3.86719H10.1208C10.0402 4.10385 9.91823 4.31752 9.76182 4.50165L10.0025 7.82065C10.8368 8.00629 11.4649 8.78258 11.4649 9.71094V12.2891C11.4649 13.2174 10.8368 13.9937 10.0025 14.1794L9.76182 17.4984C9.91823 17.6825 10.0402 17.8961 10.1208 18.1328H11.4649V17.4883C11.4649 16.4221 12.2931 15.5547 13.311 15.5547ZM8.574 16.8634L8.76486 14.2227H8.01102L8.20172 16.8634C8.2639 16.8568 8.32416 16.8438 8.38794 16.8438C8.45172 16.8438 8.51198 16.8568 8.574 16.8634ZM8.20188 5.13661L8.01102 7.77734H8.76486L8.57416 5.13661C8.51198 5.14316 8.45172 5.15625 8.38794 5.15625C8.32432 5.15625 8.2639 5.14316 8.20188 5.13661Z" fill="#415968"/>
</svg>
